<svg width="454" height="454" viewBox="0 0 454 454" fill="none" xmlns="http://www.w3.org/2000/svg">
<g clip-path="url(#clip0_12_528)">
<mask id="mask0_12_528" style="mask-type:luminance" maskUnits="userSpaceOnUse" x="0" y="0" width="454" height="454">
<path d="M0 3.05176e-05H454V454H0V3.05176e-05Z" fill="white"/>
</mask>
<g mask="url(#mask0_12_528)">
<path d="M70.5158 213.926C-15.9049 263.821 -15.9031 344.718 70.5203 394.613C156.945 444.509 297.063 444.509 383.484 394.613C469.905 344.718 469.903 263.821 383.48 213.926C297.055 164.03 156.937 164.03 70.5158 213.926Z" fill="#FAFAFA"/>
</g>
<path d="M293.314 375.335L100.257 263.873L159.929 229.422L352.986 340.884L293.314 375.335Z" fill="#E1E1E1"/>
<mask id="mask1_12_528" style="mask-type:luminance" maskUnits="userSpaceOnUse" x="0" y="0" width="454" height="454">
<path d="M0 3.05176e-05H454V454H0V3.05176e-05Z" fill="white"/>
</mask>
<g mask="url(#mask1_12_528)">
<path d="M109.111 332.184C122.249 339.855 122.249 352.292 109.111 359.963C95.9722 367.634 74.6706 367.634 61.5318 359.963C48.394 352.292 48.394 339.855 61.5327 332.184C74.6715 324.514 95.9722 324.514 109.111 332.184Z" fill="#E1E1E1"/>
</g>
<path d="M129.149 134.336V169.878L177.015 142.231L177.03 106.692L129.149 134.336Z" fill="#00B7F3"/>
<path d="M129.149 169.878L183.87 201.471L231.764 173.83L177.014 142.231L129.149 169.878Z" fill="#00B7F3"/>
<mask id="mask2_12_528" style="mask-type:luminance" maskUnits="userSpaceOnUse" x="0" y="0" width="454" height="454">
<path d="M0 3.05176e-05H454V454H0V3.05176e-05Z" fill="white"/>
</mask>
<g mask="url(#mask2_12_528)">
<mask id="mask3_12_528" style="mask-type:luminance" maskUnits="userSpaceOnUse" x="129" y="142" width="103" height="60">
<path d="M129.149 142.231H231.764V201.471H129.149V142.231Z" fill="white"/>
</mask>
<g mask="url(#mask3_12_528)">
<g opacity="0.300003">
<path d="M129.149 169.878L183.869 201.471L231.764 173.831L177.014 142.231L129.149 169.878Z" fill="white"/>
</g>
</g>
</g>
<path d="M231.764 173.831L231.751 209.369L183.87 237.013V201.471L231.764 173.831Z" fill="#00B7F3"/>
<path d="M183.87 237.013L238.59 268.606L286.471 240.962L231.751 209.37L183.87 237.013Z" fill="#00B7F3"/>
<mask id="mask4_12_528" style="mask-type:luminance" maskUnits="userSpaceOnUse" x="0" y="0" width="454" height="454">
<path d="M0 3.05176e-05H454V454H0V3.05176e-05Z" fill="white"/>
</mask>
<g mask="url(#mask4_12_528)">
<mask id="mask5_12_528" style="mask-type:luminance" maskUnits="userSpaceOnUse" x="183" y="209" width="104" height="60">
<path d="M183.87 209.369H286.471V268.606H183.87V209.369Z" fill="white"/>
</mask>
<g mask="url(#mask5_12_528)">
<g opacity="0.300003">
<path d="M183.87 237.013L238.59 268.606L286.471 240.962L231.75 209.37L183.87 237.013Z" fill="white"/>
</g>
</g>
</g>
<path d="M286.471 240.962V276.505L238.591 304.148V268.606L286.471 240.962Z" fill="#00B7F3"/>
<path d="M238.591 304.148L293.312 335.741L341.192 308.099L286.471 276.505L238.591 304.148Z" fill="#00B7F3"/>
<mask id="mask6_12_528" style="mask-type:luminance" maskUnits="userSpaceOnUse" x="0" y="0" width="454" height="454">
<path d="M0 3.05176e-05H454V454H0V3.05176e-05Z" fill="white"/>
</mask>
<g mask="url(#mask6_12_528)">
<mask id="mask7_12_528" style="mask-type:luminance" maskUnits="userSpaceOnUse" x="238" y="276" width="104" height="60">
<path d="M238.591 276.505H341.192V335.741H238.591V276.505Z" fill="white"/>
</mask>
<g mask="url(#mask7_12_528)">
<g opacity="0.300003">
<path d="M238.591 304.148L293.312 335.741L341.192 308.099L286.471 276.505L238.591 304.148Z" fill="white"/>
</g>
</g>
</g>
<path d="M341.192 308.099V343.64L293.312 371.284V335.741L341.192 308.099Z" fill="#00B7F3"/>
<path d="M129.149 134.336L77.8478 104.717L60.7475 114.591L67.5874 71.15L142.83 67.2011L125.729 77.0738L177.03 106.692L129.149 134.336Z" fill="#00B7F3"/>
<mask id="mask8_12_528" style="mask-type:luminance" maskUnits="userSpaceOnUse" x="0" y="0" width="454" height="454">
<path d="M0 3.05176e-05H454V454H0V3.05176e-05Z" fill="white"/>
</mask>
<g mask="url(#mask8_12_528)">
<mask id="mask9_12_528" style="mask-type:luminance" maskUnits="userSpaceOnUse" x="60" y="67" width="118" height="68">
<path d="M60.7478 67.2012H177.03V134.336H60.7478V67.2012Z" fill="white"/>
</mask>
<g mask="url(#mask9_12_528)">
<g opacity="0.300003">
<path d="M129.149 134.336L77.8476 104.717L60.7473 114.591L67.5872 71.15L142.83 67.2011L125.729 77.0738L177.03 106.692L129.149 134.336Z" fill="white"/>
</g>
</g>
</g>
<path d="M238.591 304.148V268.606L183.87 237.014L183.869 201.471L129.149 169.878V134.336L77.8477 104.717L60.7483 114.59V122.488L77.8477 112.616L122.309 138.282V173.827L177.029 205.421L177.03 240.962L231.751 272.554V308.097L286.472 339.69V367.334L293.312 371.283V335.741L238.591 304.148Z" fill="#00B7F3"/>
<mask id="mask10_12_528" style="mask-type:luminance" maskUnits="userSpaceOnUse" x="0" y="0" width="454" height="454">
<path d="M0 3.05176e-05H454V454H0V3.05176e-05Z" fill="white"/>
</mask>
<g mask="url(#mask10_12_528)">
<mask id="mask11_12_528" style="mask-type:luminance" maskUnits="userSpaceOnUse" x="60" y="104" width="234" height="268">
<path d="M60.7479 104.717H293.312V371.283H60.7479V104.717Z" fill="white"/>
</mask>
<g mask="url(#mask11_12_528)">
<g opacity="0.300003">
<path d="M238.591 304.148V268.606L183.871 237.013L183.87 201.471L129.149 169.878V134.336L77.8479 104.717L60.7485 114.59V122.488L77.8479 112.616L122.309 138.282V173.827L177.03 205.421L177.031 240.962L231.751 272.554V308.097L286.472 339.69V367.334L293.312 371.283V335.741L238.591 304.148Z" fill="black"/>
</g>
</g>
</g>
<path d="M142.829 67.2007V75.0985L132.568 81.0232L125.729 77.0734L142.829 67.2007Z" fill="#00B7F3"/>
<mask id="mask12_12_528" style="mask-type:luminance" maskUnits="userSpaceOnUse" x="0" y="0" width="454" height="454">
<path d="M0 3.05176e-05H454V454H0V3.05176e-05Z" fill="white"/>
</mask>
<g mask="url(#mask12_12_528)">
<mask id="mask13_12_528" style="mask-type:luminance" maskUnits="userSpaceOnUse" x="125" y="67" width="18" height="15">
<path d="M125.729 67.2011H142.829V81.0227H125.729V67.2011Z" fill="white"/>
</mask>
<g mask="url(#mask13_12_528)">
<g opacity="0.300003">
<path d="M142.829 67.2007V75.0985L132.568 81.0232L125.729 77.0734L142.829 67.2007Z" fill="black"/>
</g>
</g>
</g>
<mask id="mask14_12_528" style="mask-type:luminance" maskUnits="userSpaceOnUse" x="0" y="0" width="454" height="454">
<path d="M0 3.05176e-05H454V454H0V3.05176e-05Z" fill="white"/>
</mask>
<g mask="url(#mask14_12_528)">
<path d="M172.588 181.164C172.225 181.002 171.846 180.838 171.447 180.672L170.252 180.174C170.116 180.118 169.959 180.182 169.901 180.319C169.845 180.457 169.91 180.614 170.046 180.671L171.24 181.167C171.634 181.332 172.01 181.494 172.37 181.654C172.404 181.67 172.442 181.678 172.479 181.678C172.581 181.678 172.679 181.618 172.724 181.518C172.784 181.384 172.723 181.225 172.588 181.164ZM175.929 182.833C175.224 182.437 174.501 182.062 173.721 181.688C173.591 181.623 173.428 181.679 173.363 181.813C173.3 181.947 173.355 182.106 173.489 182.171C174.258 182.54 174.97 182.91 175.667 183.301C175.708 183.324 175.753 183.335 175.797 183.335C175.891 183.335 175.982 183.286 176.032 183.199C176.104 183.069 176.058 182.905 175.929 182.833ZM169.057 179.679C168.256 179.348 167.457 179.017 166.668 178.685C166.531 178.628 166.374 178.691 166.317 178.828C166.259 178.965 166.322 179.122 166.46 179.18C167.25 179.512 168.049 179.845 168.851 180.176C168.885 180.19 168.92 180.196 168.954 180.196C169.06 180.196 169.16 180.134 169.203 180.03C169.259 179.894 169.194 179.736 169.057 179.679ZM168.237 165.194C168.328 165.194 168.418 165.147 168.468 165.063C168.544 164.936 168.503 164.771 168.375 164.695C167.575 164.217 166.756 163.797 165.943 163.446C165.804 163.387 165.649 163.45 165.59 163.586C165.531 163.722 165.594 163.88 165.73 163.939C166.523 164.281 167.319 164.69 168.1 165.156C168.143 165.182 168.191 165.194 168.237 165.194ZM177.002 183.46C176.877 183.384 176.711 183.423 176.635 183.55C176.557 183.677 176.597 183.842 176.725 183.919C177.506 184.394 178.201 184.855 178.791 185.25C178.837 185.281 178.889 185.295 178.941 185.295C179.026 185.295 179.112 185.253 179.163 185.177C179.246 185.053 179.213 184.887 179.09 184.804C178.495 184.406 177.794 183.941 177.002 183.46ZM188.472 180.164C187.787 179.782 187.038 179.383 186.239 178.959C186.109 178.889 185.945 178.939 185.875 179.071C185.805 179.202 185.856 179.364 185.987 179.433C186.782 179.855 187.529 180.251 188.209 180.633C188.251 180.655 188.296 180.667 188.341 180.667C188.434 180.667 188.526 180.617 188.575 180.53C188.647 180.4 188.601 180.237 188.472 180.164ZM191.731 186.6C191.457 186.823 191.114 187.034 190.711 187.231C190.216 187.474 189.692 187.662 189.152 187.793C189.009 187.829 188.92 187.973 188.955 188.117C188.984 188.24 189.094 188.323 189.216 188.323C189.237 188.323 189.258 188.321 189.279 188.314C189.856 188.175 190.417 187.973 190.947 187.714C191.386 187.499 191.763 187.265 192.068 187.019C192.183 186.925 192.201 186.756 192.108 186.641C192.014 186.525 191.845 186.507 191.731 186.6ZM192.515 183.328C192.43 183.207 192.263 183.176 192.141 183.26C192.02 183.344 191.99 183.512 192.074 183.634C192.422 184.135 192.598 184.613 192.598 185.056C192.598 185.289 192.548 185.517 192.448 185.731C192.387 185.865 192.446 186.025 192.58 186.087C192.616 186.104 192.654 186.112 192.693 186.112C192.793 186.112 192.891 186.054 192.937 185.956C193.068 185.67 193.135 185.367 193.135 185.056C193.135 184.502 192.926 183.921 192.515 183.328ZM165.477 178.182C164.668 177.836 163.876 177.49 163.112 177.144C162.978 177.084 162.818 177.144 162.757 177.279C162.696 177.414 162.756 177.573 162.89 177.634C163.658 177.98 164.454 178.328 165.266 178.675C165.3 178.69 165.336 178.697 165.372 178.697C165.476 178.697 165.575 178.636 165.619 178.534C165.676 178.397 165.613 178.24 165.477 178.182ZM187.506 188.012C186.443 188.045 185.344 187.88 184.211 187.532C184.065 187.486 183.919 187.568 183.875 187.71C183.832 187.851 183.911 188.002 184.053 188.045C185.146 188.382 186.221 188.552 187.248 188.552C187.34 188.552 187.432 188.551 187.522 188.549C187.671 188.543 187.787 188.42 187.783 188.272C187.778 188.124 187.635 188 187.506 188.012ZM182.636 186.931C182.128 186.701 181.627 186.436 181.147 186.145C180.798 185.933 180.457 185.715 180.114 185.488C179.991 185.407 179.824 185.441 179.742 185.565C179.661 185.688 179.695 185.855 179.819 185.936C180.168 186.166 180.514 186.388 180.87 186.604C181.367 186.906 181.887 187.18 182.415 187.421C182.451 187.437 182.488 187.444 182.526 187.444C182.627 187.444 182.725 187.386 182.77 187.287C182.831 187.152 182.772 186.993 182.636 186.931ZM170.305 166.66C170.688 166.961 171.069 167.287 171.469 167.658C171.521 167.705 171.585 167.729 171.652 167.729C171.723 167.729 171.795 167.701 171.849 167.643C171.949 167.535 171.943 167.365 171.834 167.263C171.423 166.883 171.03 166.547 170.635 166.238C170.321 165.993 169.951 165.719 169.531 165.432C169.409 165.349 169.242 165.38 169.158 165.502C169.075 165.625 169.105 165.791 169.228 165.875C169.638 166.155 169.998 166.422 170.304 166.66H170.305ZM177.93 174.413C177.982 174.459 178.046 174.482 178.11 174.482C178.184 174.482 178.256 174.452 178.31 174.393C178.409 174.283 178.401 174.113 178.29 174.014C177.631 173.42 176.938 172.724 176.108 171.825C176.009 171.715 175.838 171.709 175.729 171.81C175.62 171.91 175.613 172.079 175.714 172.188C176.554 173.1 177.258 173.807 177.93 174.413ZM174.467 170.809L174.665 171.03C174.719 171.09 174.792 171.12 174.865 171.12C174.928 171.12 174.993 171.097 175.044 171.051C175.155 170.952 175.164 170.782 175.066 170.672L174.867 170.45C174.244 169.756 173.6 169.038 172.954 168.367C172.85 168.261 172.68 168.258 172.574 168.361C172.468 168.464 172.464 168.633 172.568 168.741C173.208 169.403 173.848 170.118 174.467 170.809ZM180.45 176.331C180.817 176.557 181.18 176.775 181.541 176.987C181.583 177.012 181.63 177.023 181.676 177.023C181.768 177.023 181.857 176.976 181.907 176.891C181.983 176.763 181.939 176.598 181.811 176.524C181.455 176.314 181.096 176.098 180.732 175.874C180.315 175.616 179.891 175.323 179.473 175.002C179.355 174.913 179.187 174.934 179.096 175.051C179.006 175.168 179.029 175.337 179.146 175.428C179.578 175.759 180.017 176.064 180.45 176.331ZM161.92 162.819C162.759 162.945 163.624 163.161 164.49 163.458C164.52 163.468 164.549 163.473 164.578 163.473C164.689 163.473 164.793 163.403 164.832 163.292C164.88 163.152 164.805 162.999 164.665 162.951C163.767 162.642 162.871 162.419 162.001 162.287C161.85 162.263 161.716 162.366 161.695 162.512C161.673 162.659 161.773 162.796 161.92 162.819ZM189.296 181.267C189.689 181.508 190.029 181.731 190.335 181.952C190.685 182.204 191.004 182.466 191.282 182.73C191.333 182.779 191.4 182.804 191.466 182.804C191.538 182.804 191.608 182.776 191.661 182.719C191.763 182.612 191.758 182.442 191.65 182.34C191.355 182.06 191.018 181.782 190.649 181.517C190.332 181.289 189.98 181.057 189.575 180.809C189.451 180.732 189.284 180.771 189.207 180.898C189.13 181.025 189.17 181.19 189.296 181.267ZM182.641 177.621C183.407 178.054 184.153 178.457 184.867 178.839C184.908 178.86 184.952 178.871 184.995 178.871C185.09 178.871 185.183 178.819 185.231 178.729C185.301 178.598 185.252 178.435 185.121 178.365C184.41 177.986 183.668 177.585 182.905 177.153C182.776 177.081 182.613 177.126 182.539 177.255C182.467 177.384 182.512 177.548 182.641 177.621ZM156.88 162.89C156.833 162.75 156.679 162.675 156.54 162.723C156.104 162.871 155.673 163.049 155.26 163.252C154.739 163.507 154.276 163.789 153.886 164.089C153.768 164.18 153.746 164.348 153.837 164.466C153.889 164.534 153.969 164.57 154.049 164.57C154.106 164.57 154.163 164.552 154.212 164.514C154.576 164.236 155.007 163.974 155.496 163.734C155.89 163.541 156.298 163.372 156.713 163.231C156.854 163.183 156.928 163.03 156.88 162.89ZM153.313 169.731C153.244 169.6 153.08 169.549 152.949 169.62C152.819 169.689 152.769 169.851 152.839 169.983C153.285 170.827 153.923 171.685 154.734 172.531C154.785 172.586 154.856 172.614 154.927 172.614C154.994 172.614 155.061 172.59 155.113 172.54C155.219 172.438 155.223 172.267 155.12 172.16C154.345 171.35 153.737 170.532 153.313 169.731ZM161.941 176.605C161.095 176.205 160.321 175.818 159.64 175.453C159.51 175.383 159.346 175.431 159.276 175.563C159.206 175.694 159.255 175.856 159.386 175.926C160.075 176.295 160.857 176.687 161.713 177.09C161.75 177.108 161.789 177.116 161.827 177.116C161.928 177.116 162.024 177.06 162.069 176.963C162.133 176.828 162.076 176.667 161.941 176.605ZM158.521 174.822C158.138 174.595 157.777 174.368 157.444 174.141C157.046 173.87 156.639 173.557 156.233 173.211C156.12 173.114 155.95 173.127 155.854 173.241C155.758 173.353 155.771 173.523 155.884 173.618C156.305 173.978 156.728 174.303 157.143 174.584C157.484 174.818 157.854 175.051 158.249 175.285C158.291 175.31 158.338 175.322 158.385 175.322C158.476 175.322 158.566 175.275 158.616 175.19C158.691 175.062 158.649 174.898 158.521 174.822ZM152.649 167.381C152.649 166.729 152.832 166.122 153.195 165.577C153.276 165.454 153.243 165.287 153.119 165.205C152.995 165.124 152.83 165.157 152.747 165.279C152.326 165.914 152.111 166.621 152.111 167.38C152.11 167.731 152.157 168.1 152.248 168.475C152.278 168.598 152.388 168.68 152.509 168.68C152.53 168.68 152.552 168.677 152.574 168.672C152.718 168.636 152.806 168.491 152.77 168.347C152.688 168.014 152.647 167.689 152.649 167.381ZM157.931 162.893C157.948 162.893 157.965 162.891 157.983 162.888C158.832 162.717 159.719 162.65 160.606 162.69C160.757 162.684 160.879 162.581 160.885 162.433C160.892 162.285 160.777 162.159 160.629 162.153C159.706 162.112 158.769 162.181 157.877 162.362C157.732 162.391 157.638 162.533 157.668 162.678C157.693 162.805 157.805 162.893 157.931 162.893Z" fill="white"/>
<path d="M244.499 235.623C243.682 235.307 242.766 234.985 241.697 234.638C241.552 234.593 241.404 234.67 241.359 234.81C241.313 234.951 241.39 235.103 241.531 235.148C242.59 235.492 243.498 235.812 244.305 236.123C244.337 236.136 244.37 236.142 244.403 236.142C244.51 236.142 244.611 236.076 244.652 235.97C244.707 235.832 244.637 235.677 244.499 235.623ZM256.407 232.761C256.489 232.761 256.57 232.724 256.623 232.652C256.711 232.533 256.686 232.365 256.566 232.277C256.252 232.044 255.932 231.798 255.606 231.539L254.395 230.567C254.281 230.475 254.111 230.493 254.017 230.608C253.925 230.724 253.943 230.892 254.058 230.985L255.271 231.958C255.601 232.222 255.928 232.471 256.247 232.708C256.296 232.745 256.351 232.761 256.407 232.761ZM251.571 239.404C250.898 238.984 250.185 238.545 249.419 238.094C249.293 238.019 249.128 238.061 249.052 238.189C248.977 238.316 249.019 238.481 249.147 238.556C249.908 239.005 250.618 239.441 251.288 239.86C251.332 239.887 251.381 239.9 251.43 239.9C251.52 239.9 251.607 239.855 251.658 239.774C251.736 239.648 251.698 239.483 251.571 239.404ZM248.327 237.463C247.971 237.26 247.603 237.057 247.223 236.851C246.82 236.633 246.368 236.413 245.878 236.195C245.741 236.136 245.584 236.195 245.524 236.331C245.464 236.467 245.525 236.626 245.66 236.686C246.137 236.897 246.576 237.111 246.967 237.324C247.345 237.527 247.71 237.729 248.063 237.929C248.105 237.953 248.15 237.964 248.195 237.964C248.288 237.964 248.379 237.916 248.429 237.828C248.502 237.7 248.457 237.536 248.327 237.463ZM245.588 224.132C245.116 223.863 244.649 223.614 244.201 223.395C243.753 223.176 243.245 222.954 242.689 222.733C242.548 222.679 242.395 222.746 242.341 222.883C242.286 223.022 242.353 223.177 242.491 223.232C243.034 223.447 243.53 223.665 243.965 223.877C244.404 224.092 244.859 224.334 245.321 224.598C245.362 224.623 245.409 224.634 245.454 224.634C245.547 224.634 245.638 224.586 245.687 224.499C245.761 224.37 245.717 224.206 245.588 224.132ZM254.769 241.387C254.09 240.985 253.386 240.544 252.635 240.072C252.511 239.992 252.345 240.031 252.266 240.157C252.187 240.282 252.225 240.447 252.35 240.526C253.106 241.001 253.813 241.445 254.495 241.848C254.539 241.874 254.585 241.886 254.632 241.886C254.724 241.886 254.813 241.839 254.863 241.755C254.938 241.627 254.896 241.463 254.769 241.387ZM267.528 241.977C267.317 242.25 267.017 242.519 266.638 242.777C266.189 243.082 265.691 243.329 265.157 243.512C265.017 243.559 264.942 243.712 264.99 243.851C265.028 243.964 265.132 244.033 265.244 244.033C265.272 244.033 265.302 244.029 265.33 244.019C265.91 243.821 266.452 243.553 266.94 243.22C267.366 242.93 267.706 242.623 267.952 242.307C268.042 242.191 268.022 242.022 267.905 241.931C267.789 241.839 267.621 241.86 267.528 241.977ZM265.984 238.266C266.069 238.266 266.154 238.225 266.206 238.15C266.289 238.027 266.258 237.86 266.136 237.776C265.794 237.543 265.417 237.314 265.017 237.093C265.016 237.092 265.014 237.092 265.013 237.092C264.662 236.899 264.301 236.711 263.928 236.522C263.795 236.453 263.634 236.508 263.568 236.639C263.501 236.772 263.553 236.932 263.685 237C264.052 237.186 264.41 237.372 264.756 237.562C264.756 237.563 264.757 237.564 264.758 237.564C265.144 237.776 265.505 237.997 265.833 238.219C265.879 238.251 265.931 238.266 265.984 238.266ZM258.541 243.187C258.001 243.006 257.471 242.795 256.965 242.561C256.964 242.561 256.964 242.56 256.963 242.559C256.596 242.39 256.228 242.203 255.856 242.004C255.727 241.934 255.565 241.981 255.493 242.113C255.422 242.242 255.471 242.405 255.602 242.476C255.983 242.682 256.361 242.873 256.738 243.047C256.739 243.048 256.74 243.048 256.741 243.048C257.264 243.291 257.812 243.508 258.371 243.696C258.399 243.706 258.429 243.71 258.457 243.71C258.568 243.71 258.673 243.639 258.711 243.526C258.758 243.387 258.682 243.234 258.541 243.187ZM259.61 234.273C258.89 233.855 258.219 233.434 257.56 232.983C257.437 232.9 257.27 232.931 257.186 233.053C257.103 233.175 257.134 233.342 257.256 233.426C257.927 233.884 258.608 234.313 259.34 234.737C259.383 234.761 259.429 234.773 259.475 234.773C259.567 234.773 259.658 234.725 259.707 234.64C259.782 234.511 259.738 234.347 259.61 234.273ZM263.528 243.858C262.505 243.964 261.36 243.888 260.178 243.636C260.028 243.608 259.891 243.698 259.86 243.842C259.829 243.988 259.922 244.13 260.067 244.161C260.941 244.347 261.794 244.442 262.601 244.442C262.936 244.442 263.266 244.425 263.584 244.392C263.731 244.377 263.838 244.245 263.823 244.098C263.807 243.95 263.681 243.849 263.528 243.858ZM267.174 238.591C267.065 238.492 266.897 238.499 266.796 238.607C266.695 238.716 266.702 238.886 266.811 238.985C267.551 239.666 267.925 240.32 267.925 240.929V240.967C267.925 241.115 268.046 241.216 268.194 241.216C268.342 241.216 268.462 241.077 268.462 240.929C268.462 240.164 268.029 239.378 267.174 238.591ZM224.152 223.737C224.226 223.737 224.299 223.707 224.352 223.648C224.624 223.344 224.979 223.043 225.406 222.753C225.406 222.753 225.407 222.752 225.407 222.751C225.83 222.464 226.295 222.21 226.79 221.998C226.926 221.939 226.99 221.781 226.932 221.645C226.872 221.508 226.715 221.447 226.579 221.505C226.053 221.73 225.558 222 225.108 222.307C225.107 222.308 225.105 222.308 225.104 222.309C224.641 222.624 224.253 222.955 223.953 223.291C223.853 223.401 223.863 223.571 223.974 223.669C224.024 223.716 224.089 223.737 224.152 223.737ZM246.636 225.398C247.425 225.904 248.257 226.479 249.176 227.158C249.225 227.193 249.28 227.21 249.336 227.21C249.418 227.21 249.499 227.172 249.552 227.101C249.64 226.982 249.615 226.814 249.496 226.726C248.566 226.04 247.725 225.458 246.926 224.947C246.802 224.867 246.635 224.903 246.555 225.028C246.476 225.153 246.512 225.319 246.636 225.398ZM260.413 235.336C261.177 235.748 261.903 236.11 262.595 236.455C262.634 236.474 262.674 236.483 262.715 236.483C262.814 236.483 262.909 236.429 262.956 236.334C263.021 236.202 262.968 236.041 262.835 235.974C262.148 235.632 261.426 235.273 260.669 234.864C260.539 234.795 260.375 234.841 260.304 234.973C260.235 235.104 260.284 235.266 260.413 235.336ZM241.147 222.17C240.116 221.823 239.053 221.523 237.986 221.276C237.836 221.24 237.696 221.333 237.663 221.477C237.63 221.621 237.721 221.765 237.864 221.799C238.915 222.041 239.962 222.338 240.977 222.679C241.004 222.689 241.034 222.693 241.062 222.693C241.174 222.693 241.278 222.622 241.316 222.51C241.364 222.37 241.287 222.217 241.147 222.17ZM223.649 225.258C223.649 225.1 223.668 224.941 223.707 224.784C223.743 224.641 223.655 224.495 223.511 224.459C223.367 224.427 223.223 224.512 223.186 224.655C223.137 224.854 223.112 225.057 223.112 225.258C223.112 226.002 223.446 226.769 224.105 227.54C224.159 227.602 224.234 227.635 224.309 227.635C224.371 227.635 224.433 227.613 224.484 227.57C224.596 227.474 224.61 227.304 224.514 227.191C223.94 226.52 223.649 225.871 223.649 225.258ZM252.848 230.011C252.897 230.051 252.957 230.071 253.016 230.071C253.094 230.071 253.173 230.036 253.225 229.97C253.318 229.855 253.3 229.686 253.184 229.593C252.369 228.939 251.555 228.29 250.74 227.665C250.623 227.574 250.454 227.596 250.365 227.714C250.274 227.832 250.296 228 250.414 228.089C251.225 228.714 252.037 229.36 252.848 230.011ZM240.284 234.191C239.406 233.92 238.514 233.655 237.626 233.389L237.451 233.337C237.306 233.293 237.16 233.376 237.117 233.518C237.074 233.659 237.156 233.809 237.298 233.852L237.474 233.904C238.359 234.168 239.25 234.434 240.126 234.704C240.151 234.712 240.179 234.716 240.205 234.716C240.319 234.716 240.426 234.642 240.461 234.526C240.505 234.386 240.426 234.235 240.284 234.191ZM236.376 220.946C235.245 220.745 234.146 220.616 233.106 220.561C232.954 220.555 232.832 220.667 232.825 220.815C232.817 220.963 232.93 221.089 233.078 221.097C234.096 221.15 235.174 221.277 236.282 221.474C236.298 221.477 236.313 221.478 236.329 221.478C236.457 221.478 236.57 221.387 236.593 221.257C236.619 221.111 236.522 220.972 236.376 220.946ZM227.894 229.737C226.96 229.215 226.162 228.686 225.522 228.162C225.409 228.068 225.239 228.084 225.145 228.199C225.051 228.315 225.068 228.484 225.182 228.577C225.846 229.121 226.671 229.669 227.634 230.205C227.675 230.229 227.719 230.24 227.764 230.24C227.858 230.24 227.949 230.19 227.998 230.102C228.07 229.973 228.024 229.809 227.894 229.737ZM236.037 232.913C235.071 232.619 234.125 232.324 233.226 232.023C233.087 231.972 232.934 232.051 232.886 232.192C232.839 232.333 232.916 232.483 233.056 232.531C233.959 232.835 234.91 233.131 235.881 233.426C235.907 233.434 235.934 233.438 235.959 233.438C236.074 233.438 236.181 233.363 236.216 233.248C236.259 233.106 236.179 232.955 236.037 232.913ZM231.731 220.799C231.726 220.654 231.606 220.539 231.462 220.539H231.455C230.265 220.571 229.16 220.716 228.169 220.969C228.026 221.005 227.939 221.151 227.976 221.296C228.007 221.417 228.116 221.497 228.236 221.497C228.257 221.497 228.28 221.495 228.302 221.489C229.254 221.246 230.32 221.107 231.469 221.075C231.618 221.071 231.734 220.947 231.731 220.799ZM231.841 231.535C231.366 231.359 230.911 231.179 230.48 230.997C230.081 230.826 229.637 230.626 229.171 230.4C229.038 230.334 228.877 230.389 228.812 230.524C228.747 230.657 228.802 230.818 228.936 230.882C229.41 231.113 229.863 231.317 230.27 231.49C230.708 231.677 231.172 231.859 231.655 232.038C231.686 232.049 231.718 232.056 231.749 232.056C231.858 232.056 231.96 231.988 232 231.88C232.052 231.741 231.98 231.587 231.841 231.535Z" fill="white"/>
<path d="M337.278 384.945C344.042 381.635 351.148 386 353.982 388.216C357.851 391.244 360.728 396.151 365.184 398.902C369.642 401.652 373.739 403.402 376.143 405.135C378.548 406.869 380.428 409.573 376.517 411.487C372.606 413.401 368.335 411.902 365.647 410.271C362.958 408.64 360.742 406.653 354.95 404.234C349.156 401.813 342.926 399.38 339.397 396.977C335.869 394.572 330.352 388.334 337.278 384.945Z" fill="#E1E1E1"/>
<mask id="mask15_12_528" style="mask-type:luminance" maskUnits="userSpaceOnUse" x="260" y="303" width="42" height="26">
<path d="M260.814 303.099H301.3V328.972H260.814V303.099Z" fill="white"/>
</mask>
<g mask="url(#mask15_12_528)">
<g opacity="0.800003">
<path d="M263.812 304.181C269.923 301.191 276.342 305.135 278.903 307.137C282.399 309.872 284.998 314.306 289.025 316.791C293.051 319.276 296.753 320.857 298.926 322.423C301.098 323.989 302.797 326.432 299.263 328.162C295.729 329.89 291.871 328.537 289.442 327.063C287.013 325.589 285.011 323.794 279.777 321.608C274.544 319.421 268.915 317.224 265.727 315.052C262.539 312.88 257.554 307.243 263.812 304.181Z" fill="#00B7F3"/>
</g>
</g>
<path d="M346.537 355.961C340.806 359.867 348.365 363.969 352.204 365.605C357.447 367.839 365.947 369.5 370.711 372.073C375.475 374.646 378.505 377.012 381.508 378.401C384.511 379.788 389.194 380.874 392.509 378.616C395.823 376.358 393.228 373.892 390.403 372.34C387.579 370.788 384.137 369.508 379.945 366.164C375.754 362.819 371.541 359.222 367.377 357.185C363.213 355.148 352.407 351.962 346.537 355.961Z" fill="#E1E1E1"/>
</g>
<path d="M34.7663 288.777V165.617L33.1047 166.577L23.8095 161.21L43.1335 125.042L52.7266 130.58L71.0464 144.671L60.3937 150.82V284.975L44.2894 294.274L34.7663 288.777Z" fill="#F5F5F5"/>
<path d="M42.8699 124.116L22.9129 161.466L33.1052 167.351L34.0968 166.778L34.0959 289.163L44.2891 295.048L61.0644 285.362V151.208L72.2482 144.751L53.0622 130L42.8699 124.116ZM43.3992 125.969L52.3158 131.117L69.8438 144.592L60.3943 150.048L59.7242 150.435V151.208V284.589L44.2891 293.501L35.4361 288.39L35.437 166.778V164.457L33.4267 165.617L33.1052 165.803L24.7053 160.954L43.3992 125.969Z" fill="#E7E7E7"/>
<path d="M44.2888 295.048L61.065 285.362V151.208L72.2488 144.751L53.0619 130.001L33.1049 167.35L44.2888 160.894V295.048Z" fill="#ECECEC"/>
<path d="M34.0963 289.164L44.2886 295.047V160.893L34.0972 166.778L34.0963 289.164Z" fill="#E1E1E1"/>
<path d="M78.8933 277.924V196.061L77.3225 196.969L68.5376 191.897L86.8011 157.713L95.8684 162.947L113.182 176.265L103.115 182.077V274.331L87.8934 283.119L78.8933 277.924Z" fill="#F5F5F5"/>
<path d="M86.5522 156.838L67.6903 192.138L77.3233 197.7L78.2603 197.159V278.289L87.8933 283.851L103.749 274.696V182.444L114.319 176.341L96.1852 162.399L86.5522 156.838ZM87.0525 158.589L95.4796 163.455L112.045 176.19L103.115 181.347L102.482 181.712V182.444V273.965L87.8933 282.388L79.5261 277.558L79.527 197.159V194.965L77.6275 196.062L77.3233 196.238L69.3846 191.654L87.0525 158.589Z" fill="#E7E7E7"/>
<path d="M87.8932 283.851L103.749 274.697V182.443L114.319 176.341L96.1851 162.399L77.3232 197.7L87.8932 191.598V283.851Z" fill="#ECECEC"/>
<path d="M78.2601 278.289L87.893 283.851V191.597L78.261 197.159L78.2601 278.289Z" fill="#E1E1E1"/>
<path d="M187.229 380.321L197.374 386.177L214.07 376.538V290.083L225.201 283.657L206.105 268.976L195.962 263.12L176.099 300.293L186.242 306.149L187.23 305.579L187.229 380.321Z" fill="#375A64"/>
<path d="M197.373 386.177L214.07 376.538V290.083L225.201 283.657L206.106 268.976L186.243 306.149L197.373 299.723V386.177Z" fill="#2B454E"/>
<path d="M187.229 380.321L197.374 386.177V299.723L187.23 305.579L187.229 380.321Z" fill="#1A2E35"/>
<path d="M150.497 378.37L158.099 382.758L170.611 375.535V327.272L178.953 322.456L164.643 311.454L157.041 307.065L142.155 334.923L149.758 339.311L150.497 338.884V378.37Z" fill="#00B7F3"/>
<mask id="mask16_12_528" style="mask-type:luminance" maskUnits="userSpaceOnUse" x="0" y="0" width="454" height="454">
<path d="M0 3.05176e-05H454V454H0V3.05176e-05Z" fill="white"/>
</mask>
<g mask="url(#mask16_12_528)">
<mask id="mask17_12_528" style="mask-type:luminance" maskUnits="userSpaceOnUse" x="142" y="307" width="23" height="33">
<path d="M142.156 307.066H164.643V339.311H142.156V307.066Z" fill="white"/>
</mask>
<g mask="url(#mask17_12_528)">
<g opacity="0.100006">
<path d="M149.758 339.312L164.643 311.454L157.041 307.066L142.156 334.923L149.758 339.312Z" fill="white"/>
</g>
</g>
</g>
<path d="M158.099 382.758L170.611 375.534V327.271L178.953 322.456L164.643 311.454L149.757 339.311L158.099 334.495V382.758Z" fill="#00B7F3"/>
<mask id="mask18_12_528" style="mask-type:luminance" maskUnits="userSpaceOnUse" x="0" y="0" width="454" height="454">
<path d="M0 3.05176e-05H454V454H0V3.05176e-05Z" fill="white"/>
</mask>
<g mask="url(#mask18_12_528)">
<mask id="mask19_12_528" style="mask-type:luminance" maskUnits="userSpaceOnUse" x="149" y="311" width="30" height="72">
<path d="M149.757 311.454H178.953V382.758H149.757V311.454Z" fill="white"/>
</mask>
<g mask="url(#mask19_12_528)">
<g opacity="0.100006">
<path d="M158.099 382.758L170.611 375.534V327.271L178.953 322.456L164.643 311.454L149.757 339.311L158.099 334.495V382.758Z" fill="black"/>
</g>
</g>
<mask id="mask20_12_528" style="mask-type:luminance" maskUnits="userSpaceOnUse" x="150" y="334" width="9" height="49">
<path d="M150.497 334.495H158.099V382.758H150.497V334.495Z" fill="white"/>
</mask>
<g mask="url(#mask20_12_528)">
<g opacity="0.300003">
<path d="M150.497 378.37L158.099 382.758V334.496L150.497 338.884V378.37Z" fill="black"/>
</g>
</g>
</g>
<path d="M422.045 317.944L411.642 323.95L394.52 314.064V187.054L383.105 180.464L402.687 165.408L413.09 159.403L433.459 197.524L423.056 203.53L422.044 202.945L422.045 317.944Z" fill="#00B7F3"/>
<mask id="mask21_12_528" style="mask-type:luminance" maskUnits="userSpaceOnUse" x="0" y="0" width="454" height="454">
<path d="M0 3.05176e-05H454V454H0V3.05176e-05Z" fill="white"/>
</mask>
<g mask="url(#mask21_12_528)">
<mask id="mask22_12_528" style="mask-type:luminance" maskUnits="userSpaceOnUse" x="383" y="159" width="51" height="165">
<path d="M383.105 159.403H433.459V323.95H383.105V159.403Z" fill="white"/>
</mask>
<g mask="url(#mask22_12_528)">
<g opacity="0.800003">
<path d="M422.045 317.944L411.642 323.949L394.52 314.064V187.054L383.105 180.464L402.687 165.408L413.09 159.403L433.459 197.524L423.056 203.53L422.044 202.945L422.045 317.944Z" fill="white"/>
</g>
</g>
</g>
<path d="M411.642 323.95L394.52 314.064V187.054L383.105 180.464L402.687 165.409L423.056 203.53L411.642 196.94V323.95Z" fill="#00B7F3"/>
<mask id="mask23_12_528" style="mask-type:luminance" maskUnits="userSpaceOnUse" x="0" y="0" width="454" height="454">
<path d="M0 3.05176e-05H454V454H0V3.05176e-05Z" fill="white"/>
</mask>
<g mask="url(#mask23_12_528)">
<mask id="mask24_12_528" style="mask-type:luminance" maskUnits="userSpaceOnUse" x="383" y="165" width="41" height="159">
<path d="M383.105 165.409H423.056V323.95H383.105V165.409Z" fill="white"/>
</mask>
<g mask="url(#mask24_12_528)">
<g opacity="0.699997">
<path d="M411.642 323.95L394.52 314.064V187.054L383.105 180.464L402.687 165.408L423.056 203.53L411.642 196.94V323.95Z" fill="white"/>
</g>
</g>
</g>
<path d="M422.045 317.944L411.642 323.95V196.939L422.044 202.945L422.045 317.944Z" fill="#00B7F3"/>
<mask id="mask25_12_528" style="mask-type:luminance" maskUnits="userSpaceOnUse" x="0" y="0" width="454" height="454">
<path d="M0 3.05176e-05H454V454H0V3.05176e-05Z" fill="white"/>
</mask>
<g mask="url(#mask25_12_528)">
<mask id="mask26_12_528" style="mask-type:luminance" maskUnits="userSpaceOnUse" x="411" y="196" width="12" height="128">
<path d="M411.642 196.94H422.045V323.95H411.642V196.94Z" fill="white"/>
</mask>
<g mask="url(#mask26_12_528)">
<g opacity="0.5">
<path d="M422.045 317.944L411.642 323.949V196.939L422.044 202.945L422.045 317.944Z" fill="white"/>
</g>
</g>
</g>
<mask id="mask27_12_528" style="mask-type:luminance" maskUnits="userSpaceOnUse" x="0" y="0" width="454" height="454">
<path d="M0 3.05176e-05H454V454H0V3.05176e-05Z" fill="white"/>
</mask>
<g mask="url(#mask27_12_528)">
<path d="M113.48 321.481L57.1549 321.47L62.9788 345.731H62.987C63.431 348.657 65.5838 351.512 69.4619 353.751C78.2214 358.808 92.4234 358.808 101.183 353.751C105.356 351.342 107.518 348.217 107.714 345.061L113.48 321.481Z" fill="#2B454E"/>
<path d="M106.61 338.11C107.887 337.372 109 336.579 109.991 335.75L113.161 322.788C111.713 324.418 109.821 325.95 107.462 327.314C95.5801 334.173 76.5366 334.346 64.2504 327.873L65.6824 322.093L65.2429 321.482L57.1581 321.481L62.9792 345.731H62.9865C63.4305 348.657 65.5834 351.512 69.4615 353.751C75.7021 357.354 84.6968 358.375 92.5256 356.845C78.4924 357.891 68.8631 351.756 67.4194 346.1C66.8437 343.844 65.8385 338.85 65.8385 338.85C77.559 344.803 95.413 344.568 106.61 338.11Z" fill="#1A2E35"/>
<path d="M116.409 314.304C116.118 315.793 115.492 317.265 114.528 318.682C113.012 320.97 110.65 323.114 107.461 324.958C95.236 332.016 75.4071 332.016 63.1818 324.958C59.9929 323.114 57.6321 320.97 56.1149 318.682C55.1605 317.265 54.534 315.793 54.2435 314.304H54.2344C53.1448 308.999 56.133 303.468 63.1818 299.398C75.4071 292.331 95.236 292.331 107.461 299.398C114.51 303.468 117.498 308.999 116.409 314.304Z" fill="#375A64"/>
<path d="M114.529 318.682C113.011 320.971 110.651 323.115 107.462 324.958C95.2363 332.016 75.4074 332.016 63.1812 324.958C59.9932 323.115 57.6315 320.971 56.1142 318.682C55.1608 317.265 54.5343 315.793 54.2437 314.303H54.2346L55.6239 323.85C56.2595 327.693 59.1215 331.435 64.2263 334.377C75.8796 341.099 94.7632 341.099 106.417 334.377C111.45 331.471 114.311 327.774 114.992 323.986L115.064 323.496L116.409 314.303C116.118 315.793 115.491 317.265 114.529 318.682Z" fill="#2B454E"/>
<path d="M103.774 301.524C93.5826 295.638 77.0607 295.638 66.8784 301.524C61.1108 304.857 58.6119 309.353 59.3665 313.695C59.9476 317.029 62.4546 320.271 66.8784 322.824C77.0607 328.709 93.5826 328.709 103.774 322.824C108.189 320.271 110.696 317.029 111.277 313.705C112.04 309.353 109.542 304.857 103.774 301.524Z" fill="#1A2E35"/>
<path d="M61.0882 317.73C62.3622 319.584 64.2799 321.325 66.8786 322.824C77.06 328.709 93.5828 328.709 103.774 322.824C106.368 321.324 108.285 319.582 109.558 317.729C109.483 314.205 107.123 310.698 102.467 308.007C92.9981 302.539 77.6456 302.539 68.1852 308.007C63.5262 310.7 61.1663 314.209 61.0882 317.73Z" fill="#FAFAFA"/>
<path d="M71.1672 227.767L86.0312 242.826L71.011 233.537C71.011 233.537 69.9205 241.518 71.9354 248.951C71.9354 248.951 79.2021 254.582 83.2536 259.249L71.6412 252.939C71.6412 252.939 69.8234 260.878 71.6712 273.555C72.1542 276.874 75.0144 283.449 76.7351 288.312C77.5105 290.516 78.4312 292.711 79.5317 294.864C79.5916 295 79.6625 295.129 79.7306 295.266C82.717 294.011 85.806 292.816 88.9967 291.688C91.4619 287.8 95.2619 277.924 97.205 269.694C104.617 238.183 82.7025 216.929 64.0349 208.42C64.0349 208.42 69.6845 217.6 71.1672 227.767Z" fill="#00A35D"/>
<path d="M84.7646 230.783C87.712 234.57 89.1357 239.259 90.1 243.886C91.0453 248.548 91.4221 253.315 91.334 258.063C91.1706 267.554 88.9187 277.036 84.4641 285.371L84.4586 285.381C84.3379 285.608 84.4232 285.89 84.6502 286.011C84.8772 286.133 85.1596 286.047 85.2804 285.82C85.2813 285.819 85.284 285.815 85.284 285.813C89.686 277.243 91.7889 267.626 91.8007 258.068C91.8107 253.288 91.354 248.503 90.3279 243.837C89.2846 239.208 87.7755 234.523 84.7646 230.783Z" fill="white"/>
<path d="M139.129 246.057C139.129 246.057 139.122 246.069 139.105 246.085C138.714 246.648 132.305 255.88 123.158 273.541L105.624 278.053L118.964 279.13L112.95 290.948L95.7666 296.193L109.653 297.151C109.653 297.151 107.09 310.852 97.8141 317.324C92.6939 320.897 90.3558 321.188 88.3292 320.218C85.8539 319.034 84.383 315.306 82.9084 309.679C81.4329 304.053 82.35 292.326 86.7047 280.616C87.8615 277.501 89.5195 274.577 91.5489 271.855C103.17 256.226 127.007 247.003 139.129 246.057Z" fill="#00A35D"/>
<mask id="mask28_12_528" style="mask-type:luminance" maskUnits="userSpaceOnUse" x="82" y="246" width="58" height="75">
<path d="M82.2537 246.057H139.129V320.697H82.2537V246.057Z" fill="white"/>
</mask>
<g mask="url(#mask28_12_528)">
<g opacity="0.100006">
<path d="M139.129 246.057C139.129 246.057 139.122 246.069 139.105 246.085C138.714 246.648 132.305 255.88 123.158 273.541L105.624 278.053L118.964 279.13L112.95 290.948L95.7666 296.193L109.653 297.151C109.653 297.151 107.09 310.852 97.8142 317.324C92.694 320.897 90.3559 321.188 88.3292 320.218C85.854 319.034 84.383 315.306 82.9085 309.679C81.433 304.053 82.35 292.326 86.7048 280.616C87.8616 277.501 89.5196 274.577 91.549 271.855C103.17 256.226 127.007 247.003 139.129 246.057Z" fill="black"/>
</g>
</g>
<path d="M121.046 253.606C112.216 258.497 104.018 264.844 97.8701 272.999C94.7739 277.041 92.2632 281.556 90.558 286.371C88.9127 291.203 88.0302 296.286 88.0401 301.357C88.0401 301.384 88.0619 301.406 88.0892 301.406C88.1146 301.406 88.1355 301.386 88.1391 301.361C88.6948 296.332 89.7099 291.392 91.4896 286.708C93.1912 282.005 95.5865 277.554 98.5067 273.471C104.427 265.325 112.416 258.824 121.095 253.692C121.119 253.679 121.127 253.648 121.113 253.625C121.1 253.602 121.07 253.593 121.046 253.606Z" fill="white"/>
<path d="M29.651 242.96C31.23 243.057 33.0015 243.285 34.9174 243.643C40.6641 244.713 47.7075 246.941 54.7318 250.243C57.0735 251.343 59.4125 252.564 61.7016 253.9C62.8457 254.569 63.977 255.266 65.0902 255.992C70.6545 259.624 75.7483 263.974 79.611 268.994C81.5205 271.469 83.1068 274.124 84.3235 276.933C84.4815 277.299 84.6567 277.657 84.802 278.029C84.8029 278.031 84.8038 278.033 84.8047 278.036C85.1797 278.998 85.5084 279.936 85.8162 280.866C89.4446 291.337 89.2403 298.379 88.3133 306.129C87.595 312.14 84.9718 318.864 83.7042 319.898C83.5308 320.04 83.3429 320.15 83.1467 320.244C81.3371 321.197 78.6567 320.332 73.7834 317.048C64.0188 310.472 61.2022 295.63 61.2022 295.63L75.6376 294.395L57.6655 289.231L51.2033 277.035L65.0685 275.685L46.7423 271.289C36.9205 253.066 30.0923 243.566 29.6764 242.987C29.6583 242.972 29.6501 242.96 29.6501 242.96H29.651Z" fill="#00A35D"/>
<path d="M34.9172 243.642C40.664 244.713 47.7073 246.94 54.7316 250.243C57.0733 251.344 59.4123 252.564 61.7014 253.901C62.8455 254.569 63.9769 255.267 65.0901 255.993C70.6543 259.624 75.7482 263.973 79.6108 268.995C81.5203 271.469 83.1066 274.124 84.3233 276.932C84.4813 277.298 84.6566 277.657 84.8018 278.028C84.8027 278.031 84.8037 278.033 84.8046 278.036C85.1796 278.997 85.5083 279.937 85.8161 280.867C89.4454 291.337 89.2401 298.379 88.314 306.13C87.5949 312.141 84.9716 318.865 83.7041 319.898C83.5306 320.04 83.3427 320.15 83.1466 320.244C82.7997 320.427 82.4065 320.52 81.9852 320.565C84.0237 311.321 81.3941 287.235 75.2415 276.906C68.8401 266.162 52.8775 250.024 29.6763 242.987L29.698 242.964C31.2653 243.063 33.0195 243.288 34.9172 243.642Z" fill="#00A35D"/>
<mask id="mask29_12_528" style="mask-type:luminance" maskUnits="userSpaceOnUse" x="29" y="242" width="60" height="79">
<path d="M29.6765 242.964H88.8887V320.565H29.6765V242.964Z" fill="white"/>
</mask>
<g mask="url(#mask29_12_528)">
<g opacity="0.199997">
<path d="M34.9172 243.642C40.664 244.713 47.7073 246.94 54.7316 250.243C57.0734 251.344 59.4124 252.564 61.7014 253.901C62.8455 254.569 63.9769 255.266 65.0901 255.993C70.6543 259.624 75.7482 263.973 79.6108 268.995C81.5203 271.469 83.1066 274.124 84.3233 276.932C84.4813 277.298 84.6566 277.657 84.8019 278.028C84.8028 278.031 84.8037 278.033 84.8046 278.035C85.1796 278.997 85.5083 279.937 85.8161 280.867C89.4454 291.337 89.2402 298.379 88.314 306.13C87.5949 312.141 84.9717 318.865 83.7041 319.898C83.5307 320.04 83.3427 320.15 83.1466 320.244C82.7997 320.427 82.4066 320.52 81.9852 320.565C84.0237 311.321 81.3941 287.234 75.2415 276.906C68.8401 266.162 52.8775 250.024 29.6763 242.987L29.6981 242.964C31.2653 243.063 33.0195 243.288 34.9172 243.642Z" fill="black"/>
</g>
</g>
<path d="M82.0432 320.574C83.12 313.711 83.1373 306.703 82.4182 299.787C81.6119 292.887 80.1064 285.997 77.1872 279.61C74.1944 273.218 69.5772 267.814 64.5923 262.955C59.4939 258.189 53.8234 254.027 47.6663 250.8C47.6372 250.786 47.6027 250.797 47.5873 250.826C47.5728 250.852 47.5827 250.885 47.6073 250.902C53.4103 254.696 58.8919 258.939 63.7815 263.796C66.2558 266.188 68.6057 268.715 70.7249 271.422C72.8714 274.104 74.8572 276.932 76.3445 280.013C79.3055 286.21 80.9254 293.022 81.8379 299.856C82.7069 306.708 82.8485 313.685 81.9278 320.557C81.9224 320.588 81.9451 320.617 81.9769 320.623C82.0086 320.627 82.0386 320.606 82.0432 320.574Z" fill="white"/>
</g>
<mask id="mask30_12_528" style="mask-type:luminance" maskUnits="userSpaceOnUse" x="0" y="0" width="454" height="454">
<path d="M0 3.05176e-05H454V454H0V3.05176e-05Z" fill="white"/>
</mask>
<g mask="url(#mask30_12_528)">
<path d="M240.495 39.9293C244.638 37.5312 250.362 37.8717 256.688 41.5237C269.332 48.824 279.579 66.5772 279.578 81.177C279.577 88.5027 276.993 93.6384 272.824 96.0173C271.739 96.6375 267.357 99.2825 266.264 99.9154C262.121 102.31 256.4 101.968 250.078 98.3173C237.436 91.0179 227.189 73.2647 227.189 58.6649C227.189 51.3692 229.749 46.2453 233.889 43.8527" fill="#FF0000"/>
<mask id="mask31_12_528" style="mask-type:luminance" maskUnits="userSpaceOnUse" x="227" y="38" width="53" height="64">
<path d="M227.189 38.3993H279.578V101.442H227.189V38.3993Z" fill="white"/>
</mask>
<g mask="url(#mask31_12_528)">
<g opacity="0.5">
<path d="M240.495 39.9294C244.638 37.5314 250.362 37.8719 256.688 41.5238C269.332 48.8242 279.579 66.5774 279.577 81.1771C279.577 88.5028 276.993 93.6385 272.824 96.0175C271.739 96.6376 267.357 99.2826 266.263 99.9155C262.121 102.31 256.4 101.968 250.077 98.3174C237.436 91.018 227.189 73.2648 227.189 58.6651C227.189 51.3693 229.749 46.2454 233.889 43.8529" fill="white"/>
</g>
</g>
<mask id="mask32_12_528" style="mask-type:luminance" maskUnits="userSpaceOnUse" x="238" y="65" width="42" height="34">
<path d="M238.169 65.4932H279.578V98.3192H238.169V65.4932Z" fill="white"/>
</mask>
<g mask="url(#mask32_12_528)">
<g opacity="0.199997">
<path d="M276.238 65.4927C278.357 70.7236 279.578 76.1371 279.577 81.1765L250.081 98.3196L250.078 98.3178C245.715 95.799 241.639 92.0344 238.17 87.5843L276.238 65.4927Z" fill="white"/>
</g>
</g>
<mask id="mask33_12_528" style="mask-type:luminance" maskUnits="userSpaceOnUse" x="227" y="38" width="50" height="50">
<path d="M227.189 38.3994H276.238V87.5848H227.189V38.3994Z" fill="white"/>
</mask>
<g mask="url(#mask33_12_528)">
<g opacity="0.300003">
<path d="M238.169 87.5848C231.585 79.1404 227.189 68.2263 227.189 58.665C227.189 51.3693 229.749 46.2454 233.889 43.8528L240.496 39.9294C244.638 37.5304 250.362 37.8709 256.688 41.5238C264.968 46.3044 272.219 55.5679 276.238 65.4923L238.169 87.5848Z" fill="white"/>
</g>
</g>
<path d="M250.081 45.4476C262.722 52.7515 272.973 70.5011 272.971 85.1009C272.969 99.6997 262.72 105.617 250.078 98.3177C237.436 91.0183 227.175 73.2651 227.188 58.6644C227.201 44.0674 237.45 38.1491 250.081 45.4476Z" fill="#FF0000"/>
<path d="M250.081 52.0522C259.565 57.5284 267.253 70.846 267.252 81.7983C267.25 92.7497 259.561 97.1889 250.078 91.7127C240.595 86.2375 232.908 72.919 232.908 61.9667C232.908 51.0144 240.597 46.5761 250.081 52.0522Z" fill="#FAFAFA"/>
<path d="M250.08 58.0641C256.69 61.8804 262.046 71.1602 262.045 78.7919C262.044 86.4236 256.687 89.5172 250.079 85.7009C243.47 81.8855 238.114 72.6048 238.114 64.9731C238.114 57.3413 243.471 54.2478 250.08 58.0641Z" fill="#FF0000"/>
<path d="M250.08 64.2336C253.738 66.3456 256.703 71.4831 256.703 75.7071C256.702 79.9311 253.737 81.6436 250.079 79.5316C246.421 77.4196 243.456 72.2821 243.456 68.0581C243.456 63.8332 246.422 62.1216 250.08 64.2336Z" fill="#FAFAFA"/>
<path d="M250.08 68.6558C251.623 69.5465 252.874 71.7139 252.874 73.4954C252.874 75.2778 251.623 75.9997 250.079 75.1089C248.536 74.2182 247.285 72.0517 247.285 70.2693C247.285 68.4869 248.536 67.765 250.08 68.6558Z" fill="#FF0000"/>
<path d="M217.934 90.4671C217.934 90.4671 217.376 97.5177 214.119 99.3981C210.862 101.279 209.093 95.5709 211.205 94.3524L217.934 90.4671Z" fill="#2B454E"/>
<path d="M217.934 90.467C217.934 90.467 211.549 87.4252 208.292 89.3057C205.035 91.1862 209.093 95.5709 211.205 94.3515L217.934 90.467Z" fill="#375A64"/>
<path d="M243.307 76.6378L206.406 97.9449L205.701 96.6955L243.418 74.9172L243.307 76.6378Z" fill="#1A2E35"/>
<path d="M207.279 95.2866C208.287 95.8686 208.633 97.158 208.051 98.1668C207.469 99.1747 206.179 99.5206 205.171 98.9386C204.162 98.3557 203.817 97.0663 204.399 96.0584C204.981 95.0496 206.27 94.7046 207.279 95.2866Z" fill="#1A2E35"/>
<path d="M242.585 76.1892C241.235 77.9716 243.68 81.0525 243.68 81.0525L250.043 71.8835L242.585 76.1892Z" fill="#FF0000"/>
<path d="M242.585 76.1892C241.235 77.9716 243.68 81.0525 243.68 81.0525L250.043 71.8835L242.585 76.1892Z" fill="#2B454E"/>
<path d="M238.921 72.8094C238.921 72.8094 240.366 76.4677 242.585 76.1889L250.044 71.8832L238.921 72.8094Z" fill="#375A64"/>
<path d="M263.222 99.7523C264.146 101.321 265.813 103.378 268.782 105.263C271.567 107.04 274.864 107.392 277.127 107.368C277.273 107.368 277.408 107.331 277.516 107.271C277.967 107.003 284.012 103.531 284.122 103.47C284.584 103.202 284.657 102.472 284.109 102.156C278.903 99.0895 277.479 94.6975 277.163 91.7047L263.222 99.7523Z" fill="#FF0000"/>
<mask id="mask34_12_528" style="mask-type:luminance" maskUnits="userSpaceOnUse" x="263" y="91" width="22" height="17">
<path d="M263.222 91.7054H284.495V107.369H263.222V91.7054Z" fill="white"/>
</mask>
<g mask="url(#mask34_12_528)">
<g opacity="0.300003">
<path d="M263.222 99.7522C264.146 101.321 265.813 103.378 268.781 105.263C271.567 107.04 274.864 107.392 277.127 107.368C277.273 107.368 277.407 107.331 277.516 107.27C277.967 107.003 284.012 103.53 284.122 103.47C284.584 103.202 284.657 102.472 284.109 102.156C278.903 99.0894 277.479 94.6974 277.163 91.7046L263.222 99.7522Z" fill="white"/>
</g>
</g>
<path d="M270.631 92.178C270.631 92.178 268.873 100.878 277.501 105.956C278.167 106.347 277.905 107.364 277.133 107.371C274.861 107.389 271.572 107.038 268.776 105.266C262.866 101.518 262.13 97.0867 262.13 97.0867L270.631 92.178Z" fill="#FF0000"/>
</g>
<mask id="mask35_12_528" style="mask-type:luminance" maskUnits="userSpaceOnUse" x="0" y="0" width="454" height="454">
<path d="M0 3.05176e-05H454V454H0V3.05176e-05Z" fill="white"/>
</mask>
<g mask="url(#mask35_12_528)">
<path d="M372.943 328.014C371.725 324.477 371.076 315.785 369.838 306.403L351.25 310.871C351.25 310.871 358.322 332.388 359.176 334.525C360.58 338.042 372.943 328.014 372.943 328.014Z" fill="#FFBEA7"/>
<path d="M377.267 332.554C377.105 331.095 376.096 329.329 375.211 328.16C374.82 327.645 374.314 327.282 373.89 326.817C373.402 326.283 373.176 325.388 372.886 324.732C372.767 324.461 372.645 324.185 372.45 323.962C372.141 323.607 371.681 323.42 371.226 323.299C369.196 322.762 367.041 323.329 365.085 324.093C362.431 325.132 359.878 326.576 357.968 328.691C357.219 329.519 357.164 330.169 357.414 331.204C357.802 332.811 359.208 339.197 359.172 340.735C359.113 343.222 359.064 344.469 358.207 346.804C357.939 347.537 357.66 348.137 357.411 348.607C357.011 349.361 356.228 349.842 355.374 349.854C353.954 349.873 351.462 350.133 348.797 351.46C345.103 353.297 346.016 356.82 346.016 356.82C346.016 356.82 346.409 359.366 350.234 361.636C352.424 362.934 357.586 364.459 360.809 363.426C361.04 363.341 361.246 363.265 361.454 363.165C364.99 361.502 373.719 357.18 373.807 356.532C373.812 356.495 373.79 356.462 373.792 356.425C373.963 354.341 374.171 352.26 374.379 350.179C374.507 348.895 374.812 346.805 375.095 345.546C375.244 344.888 375.355 344.226 375.459 343.528C375.87 340.788 377.305 332.896 377.267 332.554Z" fill="#375A64"/>
<path d="M378.458 333.958C379.986 334.716 378.773 339.6 377.441 343.023C375.825 347.179 375.151 347.833 375.38 351.477C375.608 355.122 375.696 357.403 374.183 358.614C372.668 359.825 361.86 365.093 361.86 365.093C361.86 365.093 364.5 359.716 365.408 351.751C366.317 343.786 367.225 338.681 371.066 335.329C374.907 331.977 378.458 333.958 378.458 333.958Z" fill="black"/>
<path d="M346.015 356.819C346.015 356.819 348.014 360.989 355.834 362.575C360.799 363.581 363.239 361.247 363.855 355.055C364.524 348.335 365.394 340.05 368.023 336.468C370.651 332.887 374.606 331.764 377.267 332.453C378.101 332.912 378.592 333.603 378.761 334.202C378.761 334.202 375.74 332.085 371.538 335.666C368.131 338.57 367.217 345.803 366.604 351.904C365.992 358.006 365.191 365.069 360.454 365.446C355.718 365.824 349.514 363.468 346.617 360.534C344.951 358.846 346.015 356.819 346.015 356.819Z" fill="#2B454E"/>
<path d="M357.773 347.762C357.773 347.762 357.114 348.14 356.992 348.839C356.87 349.538 357.023 351.179 358.446 352.181C359.049 352.607 359.603 352.5 358.683 351.133C357.764 349.766 357.773 347.762 357.773 347.762Z" fill="#FAFAFA"/>
<path d="M358.921 344.123C358.921 344.123 358.496 344.469 358.425 345.025C358.354 345.581 359.166 347.959 360.229 348.556C361.291 349.152 360.795 347.842 360.332 347.214C359.868 346.587 358.921 344.123 358.921 344.123Z" fill="#FAFAFA"/>
<path d="M359.088 339.69C359.088 339.69 358.766 340.252 358.921 341.021C359.019 341.511 360.824 342.938 361.535 342.934C362.245 342.931 362.541 342.539 361.604 342.023C360.867 341.617 359.305 340.364 359.088 339.69Z" fill="#FAFAFA"/>
<path d="M368.495 172.132C369.822 180.648 370.415 187.044 368.907 208.337C368.243 217.71 365.423 258.066 365.423 258.066C365.423 258.066 369.243 270.361 369.752 284.136C370.298 298.857 371.399 316.94 371.399 316.94C371.399 316.94 368.306 314.856 362.221 316.606C357.314 318.016 354.356 322.199 354.356 322.199C354.356 322.199 346.674 299.807 342.266 283.677C339.184 272.401 337.072 268.69 335.362 253.212C333.263 234.205 329.844 207.493 329.844 207.493L319.324 172.151L368.495 172.132Z" fill="#2B454E"/>
<path d="M341.989 216.787C336.205 221.891 334.965 226.144 334.65 229.207C334.334 232.262 336.147 259.421 336.148 259.533C335.883 257.674 335.625 255.593 335.363 253.212C333.264 234.218 329.849 207.535 329.844 207.495V207.493L319.325 172.151H352.618L349.81 192.429C350.656 201.135 347.774 211.683 341.989 216.787Z" fill="#1A2E35"/>
<path d="M304.562 317.495C304.977 319.332 305.481 320.711 303.783 322.908C302.086 325.106 298.426 326.293 294.785 326.18C291.594 326.08 289.583 324.736 287.734 323.3C285.633 321.67 284.156 320.246 283.369 319.571C282.581 318.898 279.444 318.036 276.471 317.437C273.341 316.807 267.317 315.499 264.254 311.025C261.19 306.551 261.721 302.643 261.721 302.643L304.562 317.495Z" fill="#1A2E35"/>
<path d="M281.549 299.806C287.953 302.008 297.689 303.35 303.493 304.889C305.237 306.51 304.859 313.868 304.877 318.827C302.654 323.931 295.547 325.234 290.835 323.197C288.389 321.853 286.759 319.95 284.355 318.48C282.452 317.318 280.428 316.807 278.174 316.317C276.11 315.867 272.548 314.826 270.785 314.093C264.495 311.21 261.363 305.852 261.737 301.502C262.066 297.683 264.586 294.99 270.832 295.931C273.618 296.351 277.144 298.292 281.549 299.806Z" fill="#375A64"/>
<path d="M288.103 301.49C286.964 300.008 284.779 300.888 283.069 302.974C281.359 305.061 280.908 308.426 281.114 309.043C281.32 309.659 282.142 310.176 282.379 309.306C282.615 308.436 283.027 305.504 284.378 303.721C285.784 301.865 287.647 301.374 287.647 301.374L288.103 301.49Z" fill="#E1E1E1"/>
<path d="M279.987 299.241C278.967 297.745 276.481 298.459 274.713 300.384C272.945 302.309 272.393 304.871 272.558 305.48C272.724 306.087 273.491 306.632 273.768 305.803C274.044 304.974 274.716 302.746 276.12 301.094C277.58 299.375 279.552 299.085 279.552 299.085L279.987 299.241Z" fill="#E1E1E1"/>
<path d="M283.646 300.466C282.626 298.971 280.464 299.704 278.697 301.629C276.929 303.554 276.31 306.784 276.476 307.393C276.641 308 277.408 308.544 277.684 307.716C277.96 306.887 278.519 304.074 279.922 302.422C281.383 300.703 283.211 300.329 283.211 300.329L283.646 300.466Z" fill="#E1E1E1"/>
<path d="M303.693 299.806C303.693 300.01 303.422 306.594 303.422 306.594C303.422 306.594 302.826 309.178 297.115 309.902C291.405 310.626 287.236 308.463 286.149 306.942C286.149 306.942 285.451 300.123 285.112 297.275L303.693 299.806Z" fill="#FFBEA7"/>
<path d="M352.618 187.594C351.994 197.396 347.834 210.084 333.69 219.653C327.241 224.645 322.556 229.663 317.217 234.95C310.598 241.506 305.944 245.49 305.944 245.49C305.944 245.49 307.481 255.43 306.857 268.743C306.233 282.055 303.849 299.694 303.849 299.694C303.849 299.694 299.451 303.173 293.252 302.572C287.053 301.972 284.819 299.647 284.819 299.647C284.819 299.647 278.682 258.578 277.851 250.466C277.018 242.354 275.445 237.701 282.415 224.634C287.838 214.467 311.761 172.151 311.761 172.151H352.618V187.594Z" fill="#2B454E"/>
<path d="M229.283 187.831L211.565 216.229C211.051 217.056 211.876 218.064 212.787 217.722L244.305 205.894L229.283 187.831Z" fill="#FFAAA8"/>
<path d="M212.787 217.722C211.876 218.063 211.05 217.056 211.565 216.228L215.024 210.684C215.424 212.76 216.951 214.436 218.977 215.032L219.529 215.191L212.787 217.722Z" fill="#1A2E35"/>
<path d="M395.816 82.1183L393.418 84.0778L390.533 86.4558L244.311 205.895C240.541 205.76 237.104 203.816 234.457 201.157C230.414 197.124 228.184 191.429 229.294 187.842L375.457 68.4574L380.987 63.9329C377.57 67.06 392.344 85.2091 395.816 82.1183Z" fill="#A35335"/>
<path d="M386.712 89.6137L381.349 93.9857C379.835 95.3042 376.135 92.8072 372.672 89.2669C368.058 84.577 364.572 77.4738 366.571 75.724L370.519 72.4952L371.95 71.3647C369.948 73.1163 373.434 80.2223 378.046 84.9121C381.37 88.2989 384.931 90.7333 386.533 89.7354L386.548 89.7227C386.61 89.7018 386.66 89.6646 386.712 89.6137Z" fill="#ECECEC"/>
<path d="M385.364 90.693C381.857 93.762 367.091 75.514 370.596 72.444L375.952 68.0502C372.445 71.1201 387.21 89.3673 390.715 86.2983L385.364 90.693Z" fill="#A35335"/>
<path d="M395.816 82.1183L390.533 86.4558C387.112 89.4931 372.714 72.0032 375.457 68.4575C375.495 68.3885 375.563 68.3231 375.631 68.2604L380.987 63.9329C377.57 67.0601 392.344 85.2092 395.816 82.1183Z" fill="#ECECEC"/>
<mask id="mask36_12_528" style="mask-type:luminance" maskUnits="userSpaceOnUse" x="211" y="73" width="185" height="145">
<path d="M211.565 73.7043H395.816V217.789H211.565V73.7043Z" fill="white"/>
</mask>
<g mask="url(#mask36_12_528)">
<g opacity="0.149994">
<path d="M211.701 217.467L211.565 216.229L232.241 198.604L384.462 74.2884C384.2 73.9425 384.243 73.7563 384.535 73.7037C388.39 78.9229 393.873 83.846 395.816 82.1181L393.418 84.0785L390.533 86.4565L244.312 205.895H244.305L212.787 217.722C212.362 217.881 211.96 217.74 211.701 217.467Z" fill="black"/>
</g>
</g>
<path d="M418.252 63.7261L395.816 82.1186C394.332 83.4397 390.656 80.9908 387.2 77.495C382.57 72.8179 379.025 65.7192 380.987 63.9322C380.987 63.9322 380.989 63.9186 381.007 63.9059L403.523 45.4635C408.015 41.8088 416.551 50.0017 419.103 56.9643C420.077 59.5639 420.01 62.03 418.252 63.7261Z" fill="#FF9090"/>
<mask id="mask37_12_528" style="mask-type:luminance" maskUnits="userSpaceOnUse" x="402" y="44" width="18" height="21">
<path d="M402.436 44.5683H419.728V64.4244H402.436V44.5683Z" fill="white"/>
</mask>
<g mask="url(#mask37_12_528)">
<g opacity="0.100006">
<path d="M410.419 62.3474C405.631 58.9742 402.071 52.6954 402.466 48.3207C402.611 46.7153 403.272 45.5939 404.282 44.9801C408.918 42.6938 416.687 50.3764 419.103 56.9648C420.06 59.5136 420.001 61.9279 418.343 63.6223C416.638 64.9906 413.665 64.6338 410.419 62.3474Z" fill="black"/>
</g>
</g>
<path d="M351.934 98.7057C349.789 96.8897 348.593 91.1865 349.669 88.0802C350.745 84.974 355.115 77.6047 355.7 68.7035C356.286 59.8033 344.305 46.1397 333.985 47.2157C323.663 48.2917 318.167 53.9994 315.386 61.7165C313.692 66.4181 314.986 67.0709 314.333 69.775C313.047 75.0995 311.808 82.3825 314.1 89.4958C315.274 93.1378 318.082 94.9447 321.075 95.5413C324.709 96.265 327.755 95.7601 327.755 95.7601C327.755 95.7601 328.015 100.32 327.806 102.668C327.54 105.66 324.815 105.741 324.815 105.741C324.815 105.741 354.079 100.522 351.934 98.7057Z" fill="#FFBEA7"/>
<path d="M321.755 84.141C322.24 85.8262 324 86.7987 325.685 86.3129C327.371 85.8281 328.344 84.0674 327.858 82.3822L321.755 84.141Z" fill="#C76668"/>
<path d="M324.139 86.3519C324.734 84.7611 326.203 83.6006 327.964 83.4563C327.883 84.7583 327.012 85.9315 325.686 86.3128C325.162 86.4645 324.636 86.4599 324.139 86.3519Z" fill="#FF9090"/>
<path d="M328.35 72.0019C328.064 72.9044 328.538 73.8569 329.407 74.1284C330.276 74.4008 331.212 73.8896 331.498 72.9871C331.783 72.0845 331.31 71.1329 330.44 70.8605C329.571 70.5881 328.635 71.0993 328.35 72.0019Z" fill="#1A2E35"/>
<path d="M328.481 65.8442L332.245 67.2825C332.62 66.2056 332.081 65.0116 331.04 64.6148C330.001 64.2171 328.855 64.7682 328.481 65.8442Z" fill="#1A2E35"/>
<path d="M315.968 66.7429L319.751 65.2647C319.38 64.1969 318.231 63.6612 317.186 64.0698C316.142 64.4775 315.596 65.6742 315.968 66.7429Z" fill="#1A2E35"/>
<path d="M316.722 71.219C316.725 72.0879 317.407 72.7871 318.244 72.7807C319.081 72.7744 319.755 72.0652 319.751 71.1954C319.747 70.3264 319.065 69.6272 318.229 69.6336C317.392 69.6399 316.717 70.3491 316.722 71.219Z" fill="#1A2E35"/>
<path d="M315.417 78.6295L321.303 81.2672L323.162 69.712C320.976 68.922 318.136 74.2257 315.417 78.6295Z" fill="#FF9A79"/>
<path d="M327.755 95.7598C327.755 95.7598 333.335 94.9235 334.915 94.0228C339.208 91.5766 340.769 89.6789 341.727 86.9976C341.089 90.0657 339.659 93.4072 335.412 95.541C332.763 96.8721 327.877 97.8328 327.877 97.8328L327.755 95.7598Z" fill="#FF9A79"/>
<path d="M358.24 64.1411C357.996 62.2951 356.838 59.9697 355.48 58.9854C355.227 58.7848 354.966 58.6458 354.704 58.5677C356.028 50.2941 349.653 46.9236 346.353 46.3751C345.09 46.1663 342.999 45.8439 341.781 45.4254C341.362 45.2864 341.005 45.0948 340.7 44.886C339.673 44.1714 339.116 43.1526 337.957 42.2991C335.37 40.3923 331.234 40.6275 329.875 43.8845C328.107 41.8814 325.895 42.0903 323.388 42.9093C321.819 43.4223 320.836 44.5201 320.461 45.8439C320.269 46.5495 320.235 47.3067 320.374 48.0731C317.187 46.5576 314.452 48.5434 313.816 50.433C313.738 50.6427 313.695 50.8516 313.677 51.0513C313.651 51.2865 313.651 51.5044 313.651 51.7305C313.642 52.9327 313.807 53.9951 313.067 55.1709C312.902 55.4324 312.71 55.6503 312.502 55.8238C311.43 56.7472 309.897 56.6691 309.305 55.6939C309.096 57.8187 310.019 59.3686 312.301 59.0989C311.587 60.292 311.483 61.7984 311.979 63.1568C312.414 64.3671 313.416 65.1952 314.478 65.6038C314.53 64.6641 314.748 63.471 315.384 61.7203C315.706 60.8314 316.063 59.9697 316.455 59.1334C317.752 59.7082 319.312 60.144 321.14 60.431C329.754 61.7812 336.468 59.6383 338.602 58.7158C337.748 60.5354 337.087 62.8699 336.721 64.7158C336.355 66.5536 337.208 68.8617 338.271 69.8633C338.863 70.4153 338.648 71.4123 338.494 72.1024C338.296 72.9913 337.919 73.7886 337.986 74.7093C337.995 74.84 338.011 74.9735 338.06 75.0952C338.389 75.9087 339.5 76.4599 340.239 75.837C340.892 75.2868 341.321 74.4587 341.685 73.7032C343.731 69.4538 348.155 69.3403 349.958 71.465C351.761 73.5988 351.683 75.7934 349.958 79.6079C348.8 82.1685 346.135 83.4315 344.158 82.6043C343.809 82.4563 343.487 82.2466 343.191 81.9678C343.13 83.614 343.563 85.8041 345.261 87.0317C346.898 88.2248 349.112 88.1749 349.671 88.0814C350.184 86.5841 351.456 84.128 352.701 80.9754C353.616 79.4082 354.547 77.8836 355.287 76.4381C355.296 76.4208 355.306 76.4118 355.306 76.4036C355.558 75.9414 355.776 75.4802 355.967 75.0361C357.726 70.9601 358.72 67.8248 358.24 64.1411Z" fill="#1A2E35"/>
<path d="M355.421 99.1844C366.303 98.1684 370.998 101.895 373.738 105.111C376.477 108.327 388.789 128.692 393.707 140.224C395.694 144.884 396.803 148.553 392.544 152.74C387.993 157.214 367.056 174.947 367.056 174.947L359.381 162.879L374.008 143.626L361.254 122.731L355.421 99.1844Z" fill="#2B454E"/>
<path d="M361.562 100.768C367.075 103.465 370.912 114.473 371.398 122.819C371.778 129.309 370.347 137.811 369.433 149.947C369.144 153.772 368.887 159.06 369.274 166.558C369.569 172.293 370.043 182.376 370.043 182.376C370.043 182.376 364.608 193.403 344.967 195.35C316.412 198.181 304.989 184.153 304.989 184.153C304.989 184.153 306.963 177.818 307.194 154.207C307.365 136.551 305.589 119.52 309.077 113.224C310.582 111.134 310.569 109.052 314.539 107.582C317.298 106.561 329.662 103.542 334.541 102.497C350.721 99.0323 355.796 97.9481 361.562 100.768Z" fill="#375A64"/>
<path d="M325.018 104.846C327.51 105.479 328.675 106.087 332.42 106.924C338.805 108.352 344.221 107.317 348.387 105.17C353.016 102.784 353.86 99.6096 353.86 99.6096C353.86 99.6096 351.9 96.1464 351.131 95.0105C350.382 93.9046 349.619 93.9936 349.619 93.9936L349.954 95.3138C349.954 95.3138 349.912 97.5112 344.639 98.8459C339.214 100.219 330.392 100.33 327.866 99.5741L327.858 98.835C326.55 99.1837 326.139 100.148 324.652 102.16C323.083 104.285 321.705 105.741 321.705 105.741L325.018 104.846Z" fill="#2B454E"/>
<path d="M252.532 176.661C247.749 177.803 245.502 179.485 243.172 179.759C240.843 180.033 239.052 179.889 239.052 179.889L234.677 183.446C234.677 183.446 235.561 175.842 236.883 172.989C238.204 170.136 239.361 171.847 240.234 170.088C241.109 168.328 240.913 167.063 242.811 166.38C244.71 165.697 244.275 163.948 247.212 163.415C250.151 162.881 261.83 164.598 261.83 164.598L252.532 176.661Z" fill="#FFAAA8"/>
<path d="M315.191 107.36C303.026 110.089 299.976 113.184 294.212 124.085C287.731 136.344 279.768 151.988 279.768 151.988C279.768 151.988 263.222 158.653 253.365 162.181C250.179 163.321 244.131 178.322 249.403 178.681C249.403 178.681 276.422 173.966 284.421 172.41C294.042 170.54 295.562 168.599 300.772 160.672C305.982 152.746 317.825 130.18 317.825 130.18C317.825 130.18 323.393 113.679 315.191 107.36Z" fill="#2B454E"/>
</g>
</g>
<defs>
<clipPath id="clip0_12_528">
<rect width="454" height="454" fill="white"/>
</clipPath>
</defs>
</svg>
