<svg width="169" height="165" viewBox="0 0 223 165" fill="none" xmlns="http://www.w3.org/2000/svg">
<g clip-path="url(#clip0_46_1123)">
<path d="M206.978 78.9836C206.978 119.307 174.29 151.995 133.966 151.995C93.6432 151.995 60.9548 119.307 60.9548 78.9836C60.9548 38.6606 93.6432 5.97176 133.966 5.97176C174.29 5.97176 206.978 38.6606 206.978 78.9836Z" fill="#00B7F3"/>
<path d="M179.99 78.9836C179.99 104.402 159.385 125.007 133.966 125.007C108.548 125.007 87.9424 104.402 87.9424 78.9836C87.9424 53.566 108.548 32.9597 133.966 32.9597C159.385 32.9597 179.99 53.566 179.99 78.9836Z" fill="white"/>
<path d="M158.351 78.9842C158.351 92.4523 147.433 103.37 133.966 103.37C120.498 103.37 109.579 92.4523 109.579 78.9842C109.579 65.5163 120.498 54.5981 133.966 54.5981C147.433 54.5981 158.351 65.5163 158.351 78.9842Z" fill="#00B7F3"/>
<path d="M132.844 47.7672C132.747 47.7672 132.655 47.7106 132.614 47.6159C132.56 47.489 132.619 47.342 132.745 47.2874L241.379 0.582569C241.505 0.527954 241.653 0.585888 241.707 0.713318C241.762 0.840752 241.704 0.988037 241.576 1.04265L132.943 47.7469C132.911 47.7606 132.877 47.7672 132.844 47.7672Z" fill="#19283F"/>
<path d="M2.93369 103.62C2.83679 103.62 2.74459 103.564 2.70389 103.469C2.64929 103.342 2.70799 103.195 2.83479 103.141L49.6907 82.996C49.8174 82.941 49.9644 83 50.0191 83.127C50.0736 83.254 50.015 83.4 49.8881 83.455L3.03229 103.6C3.00009 103.614 2.96659 103.62 2.93369 103.62Z" fill="#19283F"/>
<path d="M13.175 88.427C13.0782 88.427 12.986 88.37 12.9453 88.276C12.8907 88.149 12.9494 88.002 13.0762 87.947L35.3387 78.376C35.4652 78.321 35.6125 78.38 35.6671 78.507C35.7216 78.634 35.663 78.781 35.5361 78.835L13.2737 88.407C13.2415 88.421 13.208 88.427 13.175 88.427Z" fill="#19283F"/>
<path d="M96.2333 90.7202L154.236 150.126L151.272 152.562C151.272 152.562 115.791 140.915 116.36 123.85C116.36 123.85 76.9388 109.218 83.4958 91.1502L96.2333 90.7202Z" fill="#19283F"/>
<path d="M68.4528 66.31C68.4528 66.31 60.4683 65.385 49.7894 68.73L55.1429 79.233L69.0988 75.358L75.437 78.296L68.4528 66.31Z" fill="#F9724D"/>
<path d="M55.1435 79.233C59.714 77.123 64.171 74.529 66.9216 72.847L70.8886 71.042L75.436 78.296H75.437L69.0988 75.358L60.9672 77.616L55.1435 79.233ZM49.7921 68.73C56.6675 66.576 62.4249 66.193 65.6541 66.193C66.6591 66.193 67.4195 66.23 67.892 66.262L68.3436 66.983C67.2795 67.297 66.0049 67.716 65.1757 67.994C63.806 67.993 62.4674 67.987 61.1732 67.987C56.7063 67.987 52.7575 68.064 49.7921 68.73Z" fill="#E9413C"/>
<path d="M84.138 59.686C84.138 59.686 85.608 56.568 95.499 58.315C95.821 58.372 99.156 67.672 99.156 67.672L93.304 69.887L93.546 70.907C94.24 73.84 94.749 76.814 95.069 79.812L96.234 90.72L83.496 91.15L67.8351 66.172L74.748 61.972L84.138 59.686Z" fill="#4186FF"/>
<mask id="mask0_46_1123" style="mask-type:luminance" maskUnits="userSpaceOnUse" x="67" y="57" width="33" height="35">
<path d="M84.138 59.686C84.138 59.686 85.608 56.568 95.499 58.315C95.821 58.372 99.156 67.672 99.156 67.672L93.304 69.887L93.546 70.907C94.24 73.84 94.749 76.814 95.069 79.812L96.234 90.72L83.496 91.15L67.8351 66.172L74.748 61.972L84.138 59.686Z" fill="white"/>
</mask>
<g mask="url(#mask0_46_1123)">
<path d="M83.496 91.15L75.437 78.296C75.467 78.314 95.267 89.671 96.227 90.653L96.234 90.72C96.218 90.719 96.198 90.719 96.174 90.719C96.023 90.719 95.709 90.731 95.267 90.753L83.496 91.15Z" fill="#0C33FF"/>
</g>
<path d="M85.137 58.785C83.552 58.819 82.031 58.196 80.925 57.077C82.293 56.145 83.256 53.909 83.256 51.298C83.256 47.85 81.576 45.055 79.502 45.055C77.429 45.055 74.938 47.66 74.938 51.108C74.938 51.791 75.088 52.562 75.936 53.254L74.748 61.972C74.748 61.972 81.472 67.299 84.405 67.886C87.338 68.472 85.137 58.785 85.137 58.785Z" fill="#F9724D"/>
<mask id="mask1_46_1123" style="mask-type:luminance" maskUnits="userSpaceOnUse" x="74" y="45" width="12" height="23">
<path d="M85.137 58.785C83.552 58.819 82.031 58.196 80.925 57.077C82.293 56.145 83.256 53.909 83.256 51.298C83.256 47.85 81.576 45.055 79.502 45.055C77.429 45.055 74.938 47.66 74.938 51.108C74.938 51.791 75.088 52.562 75.936 53.254L74.748 61.972C74.748 61.972 81.472 67.299 84.405 67.886C87.338 68.472 85.137 58.785 85.137 58.785Z" fill="white"/>
</mask>
<g mask="url(#mask1_46_1123)">
<path d="M84.65 67.911C84.573 67.911 84.491 67.903 84.405 67.886C81.472 67.299 74.748 61.972 74.748 61.972C74.748 61.972 81.289 65.869 83.36 65.869C83.408 65.869 83.453 65.867 83.496 65.863C85.398 65.676 85.137 58.785 85.137 58.785C85.137 58.785 85.93 62.272 85.93 64.936C85.93 66.581 85.628 67.911 84.65 67.911Z" fill="#E9413C"/>
</g>
<path d="M81.385 41.909C81.385 41.909 82.49 43.667 80.782 43.968C79.074 44.27 70.9329 44.411 73.33 49.595C75.728 54.779 75.588 55.809 75.588 55.809L76.769 53.644C76.178 53.537 75.432 52.427 76.067 51.744C76.356 51.434 77.041 52.176 77.265 52.352C77.121 51.586 76.724 50.305 77.818 50.098C77.818 50.098 83.746 51.253 84.952 47.033C86.158 42.813 81.385 41.909 81.385 41.909Z" fill="#19283F"/>
<path d="M79.816 57.48C79.325 57.48 78.661 57.351 77.796 56.938C77.763 56.922 77.749 56.882 77.765 56.849C77.781 56.815 77.821 56.801 77.854 56.817C78.986 57.358 79.749 57.386 80.19 57.314C80.664 57.237 80.876 57.032 80.878 57.03C80.904 57.004 80.946 57.004 80.972 57.03C80.998 57.056 80.998 57.098 80.972 57.124C80.95 57.147 80.605 57.48 79.816 57.48Z" fill="#19283F"/>
<path d="M81.939 54.891C81.869 54.891 81.81 54.837 81.805 54.766C81.8 54.692 81.856 54.628 81.93 54.624C82.682 54.575 82.934 54.085 83.011 53.856C81.403 53.383 81.177 52.033 81.288 51.368C81.3 51.296 81.368 51.246 81.442 51.258C81.515 51.271 81.564 51.339 81.552 51.412C81.54 51.485 81.294 53.148 83.207 53.632L83.326 53.662L83.306 53.782C83.305 53.793 83.128 54.813 81.948 54.891H81.939Z" fill="#19283F"/>
<path d="M80.757 51.592C80.786 51.911 80.671 52.183 80.498 52.199C80.326 52.214 80.163 51.968 80.134 51.649C80.105 51.329 80.221 51.058 80.393 51.042C80.565 51.026 80.728 51.272 80.757 51.592Z" fill="#19283F"/>
<path d="M82.601 51.013C82.63 51.332 82.514 51.604 82.342 51.62C82.17 51.635 82.006 51.389 81.977 51.07C81.948 50.75 82.064 50.478 82.236 50.463C82.408 50.447 82.571 50.693 82.601 51.013Z" fill="#19283F"/>
<path d="M80.78 56.727C80.768 56.727 80.755 56.726 80.743 56.722C80.174 56.556 79.81 56.267 79.661 55.863C79.403 55.166 79.895 54.399 79.916 54.367C79.949 54.317 80.011 54.295 80.068 54.312C80.125 54.33 80.163 54.384 80.162 54.443C80.155 54.755 80.249 55.002 80.451 55.199C80.987 55.722 82.08 55.676 82.091 55.675C82.167 55.672 82.228 55.728 82.231 55.802C82.235 55.876 82.178 55.939 82.104 55.942C82.054 55.944 80.883 55.994 80.264 55.39C80.119 55.249 80.017 55.084 79.957 54.898C79.868 55.145 79.801 55.473 79.912 55.771C80.03 56.091 80.335 56.324 80.818 56.465C80.889 56.486 80.929 56.56 80.909 56.631C80.891 56.69 80.838 56.727 80.78 56.727Z" fill="#19283F"/>
<path d="M76.852 53.281L76.842 53.28C76.188 53.181 76.029 52.864 76.011 52.615C75.988 52.285 76.217 51.932 76.373 51.884C76.453 51.86 76.693 51.891 77.2 52.7C77.219 52.732 77.21 52.773 77.178 52.792C77.147 52.812 77.106 52.803 77.086 52.771C76.816 52.34 76.5 51.986 76.412 52.012C76.339 52.034 76.124 52.312 76.145 52.605C76.166 52.892 76.414 53.08 76.862 53.148C76.899 53.153 76.924 53.188 76.918 53.224C76.913 53.257 76.885 53.281 76.852 53.281Z" fill="#19283F"/>
<path d="M125.249 55.8084L129.336 58.7965L132.267 58.9007C132.267 58.9007 140.182 69.5147 137.276 75.918C137.276 75.918 133.79 66.6092 121.528 57.8813L125.249 55.8084Z" fill="#A35335"/>
<path d="M137.275 75.9184C137.275 75.9184 125.972 83.4383 133.689 87.6843L133.697 87.6193C133.824 86.5413 133.42 85.4783 132.637 84.7274C132.103 84.2163 131.667 83.5224 131.939 82.7283C132.512 81.0563 136.097 80.6203 137.275 75.9184Z" fill="#19283F"/>
<path d="M116.402 55.478C116.402 55.478 119.257 48.661 122.191 49.783C123.841 50.414 125.334 51.691 126.359 53.399C127.093 54.623 126.506 56.212 125.153 56.666L122.231 57.646C120.544 58.212 118.68 57.93 117.255 56.863C116.643 56.405 116.223 55.909 116.402 55.478Z" fill="#F9724D"/>
<path d="M120.373 57.541C120.373 57.541 96.191 36.346 59.528 32.271C57.5406 32.051 56.0338 30.377 56.0338 28.377C56.0338 28.377 90.013 30.913 111.723 42.959L112.18 46.414L122.629 52.916C122.629 52.916 124.768 56.643 120.373 57.541Z" fill="#A35335"/>
<path d="M116.933 54.662C116.933 54.662 105.996 53.668 103.841 55.325C101.687 56.982 100.444 58.722 100.444 58.722C100.444 58.722 93.567 56.485 91.91 61.208C90.253 65.931 91.767 71.265 97.733 68.282L120.578 57.562L116.933 54.662Z" fill="#F9724D"/>
<path d="M116.878 59.299C115.807 57.959 114.223 57.183 112.563 57.118L112.99 54.42H111.606L110.876 57.299L107.09 58.264L107.501 54.42L106.088 54.581L105.385 58.699L103.577 59.16C103.228 59.249 102.961 59.535 102.902 59.892C102.731 60.924 102.603 63.151 104.06 65.313L116.878 59.299Z" fill="#19283F"/>
<path d="M116.787 54.022L122.712 54.551L122.628 54.761C122.394 55.348 121.877 55.774 121.258 55.892L117.795 56.553C117.795 56.553 115.413 56.421 116.787 54.022Z" fill="#F9724D"/>
<path d="M123.364 57.4L123.346 57.399C123.272 57.389 123.221 57.321 123.231 57.248L123.553 54.877C123.661 54.083 123.386 53.272 122.819 52.706L120.859 50.75C120.807 50.698 120.807 50.613 120.859 50.561C120.912 50.508 120.996 50.508 121.049 50.561L123.008 52.516C123.634 53.141 123.937 54.037 123.818 54.913L123.496 57.284C123.487 57.351 123.43 57.4 123.364 57.4Z" fill="#19283F"/>
<path d="M124.668 57.123L124.643 57.121C124.57 57.107 124.523 57.037 124.537 56.964L124.868 55.259C125.094 54.099 124.778 52.922 124.002 52.031L123.049 50.937C123 50.881 123.006 50.797 123.062 50.748C123.117 50.7 123.202 50.705 123.25 50.761L124.203 51.855C125.034 52.809 125.372 54.069 125.131 55.31L124.8 57.015C124.787 57.079 124.731 57.123 124.668 57.123Z" fill="#19283F"/>
<path d="M132.844 86.324C132.833 86.324 132.821 86.322 132.809 86.319L70.2569 69.255L70.2357 69.183L58.9131 30.821C58.8922 30.75 58.9327 30.676 59.0036 30.655C59.0745 30.634 59.1489 30.675 59.1698 30.746L70.4713 69.036L132.879 86.061C132.951 86.08 132.993 86.154 132.973 86.225C132.957 86.284 132.903 86.324 132.844 86.324Z" fill="#19283F"/>
<path d="M66.6905 71.481C66.5202 71.481 66.356 71.387 66.2731 71.225C66.1553 70.995 66.2464 70.713 66.4767 70.595L132.631 36.741C132.861 36.623 133.143 36.715 133.261 36.945C133.379 37.175 133.288 37.457 133.058 37.575L66.9034 71.429C66.8351 71.464 66.7623 71.481 66.6905 71.481Z" fill="#092B5F"/>
<path d="M129.935 38.6473L125.656 37.1585L141.471 32.956L129.724 42.7313L129.935 38.6473Z" fill="#092B5F"/>
<path d="M83.496 91.15C84.485 90.181 96.234 90.72 96.234 90.72L105.267 105.095C107.068 107.961 107.371 111.522 106.078 114.65L90.417 152.562H85.147C85.147 152.562 85.488 120.977 93.889 112.412C93.889 112.412 71.922 102.489 83.496 91.15Z" fill="#19283F"/>
<path d="M104.521 118.421C105.005 117.322 105.415 116.193 105.748 115.041C106.084 113.892 106.346 112.72 106.479 111.533C106.604 110.348 106.619 109.142 106.371 107.981L106.324 107.764L106.265 107.55L106.206 107.337L106.133 107.128L106.059 106.919C106.033 106.85 106 106.783 105.971 106.714L105.791 106.306L105.701 106.101C105.672 106.033 105.641 105.965 105.605 105.899L105.401 105.501C105.264 105.235 105.132 104.968 104.979 104.71L104.541 103.927L104.078 103.157L103.846 102.772L103.605 102.393L103.124 101.633C102.467 100.63 101.794 99.637 101.11 98.652C100.428 97.665 99.728 96.69 99.02 95.72C98.319 94.746 97.6 93.785 96.88 92.824C97.643 93.752 98.38 94.7 99.113 95.651C99.841 96.607 100.558 97.571 101.259 98.547C102.658 100.5 104.005 102.495 105.186 104.596C105.338 104.856 105.471 105.127 105.607 105.396L105.811 105.8C105.847 105.867 105.878 105.935 105.907 106.005L105.997 106.214L106.178 106.63C106.207 106.7 106.239 106.768 106.266 106.839L106.341 107.056L106.415 107.272L106.475 107.493L106.535 107.713L106.581 107.937C106.705 108.533 106.761 109.14 106.769 109.745C106.778 110.351 106.737 110.956 106.659 111.554C106.502 112.752 106.219 113.928 105.858 115.075C105.674 115.648 105.472 116.215 105.249 116.773C105.028 117.332 104.789 117.884 104.521 118.421Z" fill="white"/>
<path d="M167.729 150.515L168.089 150.953C168.286 151.193 168.238 151.55 167.985 151.73L155.903 160.31C155.601 160.525 155.178 160.389 155.057 160.039L154.556 158.39L167.729 150.515Z" fill="#19283F"/>
<path d="M148.845 152.02L152.735 148.197L156.45 151.917L165.696 149.801C166.264 149.652 166.869 149.789 167.317 150.167L167.729 150.515L154.856 159.403L153.37 154.384L148.845 152.02Z" fill="#4186FF"/>
<path d="M160.211 156.294C160.171 156.294 160.13 156.279 160.099 156.248C157.822 153.971 155.014 154.79 153.956 155.098C153.736 155.162 153.636 155.191 153.564 155.192H153.562C153.476 155.192 153.405 155.122 153.405 155.035C153.405 154.948 153.473 154.877 153.559 154.876C153.596 154.874 153.735 154.834 153.868 154.795C154.402 154.639 155.397 154.349 156.575 154.392C158.032 154.445 159.292 154.995 160.323 156.025C160.384 156.086 160.384 156.186 160.323 156.248C160.292 156.279 160.251 156.294 160.211 156.294Z" fill="#19283F"/>
<path d="M85.198 150.567L91.08 150.958L89.638 155.02L97.218 160.722C97.697 161.061 97.983 161.611 97.983 162.198V162.737L82.76 158.681L85.078 153.391L85.198 150.567Z" fill="#4186FF"/>
<path d="M82.76 158.681L97.983 162.737L97.561 163.726C97.462 163.957 97.208 164.081 96.965 164.015L82.888 160.217C82.527 160.119 82.333 159.728 82.474 159.381L82.76 158.681Z" fill="#19283F"/>
<path d="M88.191 160.818C88.103 160.818 88.033 160.748 88.033 160.661C88.033 157.375 84.321 155.182 84.283 155.16C84.208 155.117 84.182 155.02 84.226 154.944C84.27 154.869 84.366 154.843 84.442 154.887C84.482 154.91 85.429 155.465 86.39 156.451C87.671 157.767 88.348 159.222 88.348 160.661C88.348 160.748 88.278 160.818 88.191 160.818Z" fill="#19283F"/>
<path d="M73.298 69.945C73.298 69.945 70.61 66.761 70.2278 66.569C69.9411 66.426 66.7529 67.465 65.1757 67.994C56.898 67.99 49.7913 67.77 46.3626 70.077C42.3216 72.796 40.3318 75.954 39.4326 77.838C38.5036 79.783 39.5197 82.012 41.6338 82.544C47.6287 84.054 61.1 76.407 66.9216 72.847L73.298 69.945Z" fill="#F9724D"/>
<path d="M71.8991 70.74C71.8571 70.74 71.8151 70.723 71.7841 70.69L69.2706 68.019C69.2108 67.956 69.2139 67.856 69.2774 67.796C69.3411 67.736 69.441 67.739 69.5006 67.803L72.014 70.474C72.074 70.537 72.071 70.637 72.007 70.697C71.9768 70.726 71.9379 70.74 71.8991 70.74Z" fill="#19283F"/>
<path d="M70.6424 71.302C70.6004 71.302 70.5584 71.286 70.5274 71.253L68.014 68.582C67.9542 68.518 67.9572 68.418 68.0207 68.359C68.0844 68.299 68.1843 68.302 68.2439 68.365L70.7574 71.036C70.8172 71.1 70.8141 71.2 70.7506 71.259C70.7201 71.288 70.6812 71.302 70.6424 71.302Z" fill="#19283F"/>
<path d="M69.3857 72.075C69.3436 72.075 69.3017 72.059 69.2706 72.026L66.7573 69.355C66.6975 69.291 66.7005 69.191 66.764 69.132C66.8277 69.072 66.9276 69.075 66.9873 69.138L69.5006 71.809C69.5604 71.873 69.5574 71.973 69.4939 72.032C69.4634 72.061 69.4245 72.075 69.3857 72.075Z" fill="#19283F"/>
<path d="M65.3081 73.819C62.8113 73.439 64.3776 70.582 64.3776 70.582C64.4184 72.309 66.9216 72.847 66.9216 72.847L65.3081 73.819Z" fill="#E9413C"/>
<path d="M102.769 164.089H11.2577C14.4637 161.918 16.6784 158.072 18.9723 154.952C21.2663 151.832 23.9726 148.733 27.6495 147.518C31.3264 146.304 36.1331 147.765 37.3257 151.449C37.8895 153.191 37.5975 155.165 38.3952 156.813C39.8745 159.87 44.2983 160.161 47.3643 158.702C50.4303 157.243 52.7829 154.602 55.7479 152.947C58.7129 151.293 62.9983 150.968 65.0403 153.681C66.8577 156.095 66.3542 160.188 69.0397 161.574C71.242 162.711 73.768 161.063 75.932 159.856C83.814 155.458 96.497 157.599 102.769 164.089Z" fill="#FBD872"/>
<path d="M221.946 164.089H168.12C170.308 162.381 170.948 160.307 173.699 160.687C174.856 160.847 175.933 161.37 177.072 161.639C182.511 162.924 188.1 158.281 193.51 159.694C195.317 160.166 196.902 161.284 198.709 161.764C201.999 162.64 205.417 161.296 208.791 160.834C213.302 160.217 218.105 161.643 221.946 164.089Z" fill="#FBD872"/>
<path d="M93.5882 164.308C62.7071 164.308 39.3967 164.302 39.0727 164.282C38.9348 164.274 38.8297 164.156 38.8377 164.018C38.846 163.88 38.9651 163.776 39.1011 163.783C39.5103 163.802 62.4201 163.808 92.8462 163.808C153.653 163.808 244.496 163.783 245.865 163.783C246.003 163.783 246.115 163.895 246.115 164.033C246.115 164.171 246.004 164.283 245.865 164.283C240.337 164.284 152.977 164.308 93.5882 164.308Z" fill="#19283F"/>
<path d="M21.3872 164.283H1.00409C0.865989 164.283 0.754089 164.171 0.754089 164.033C0.754089 163.895 0.865989 163.783 1.00409 163.783H21.3872C21.5252 163.783 21.6372 163.895 21.6372 164.033C21.6372 164.171 21.5252 164.283 21.3872 164.283Z" fill="#19283F"/>
</g>
<defs>
<clipPath id="clip0_46_1123">
<rect width="247" height="165" fill="white"/>
</clipPath>
</defs>
</svg>
