<svg width="481" height="530" viewBox="0 0 481 530" fill="none" xmlns="http://www.w3.org/2000/svg">
<path d="M230.886 0.876587C224.412 2.95765 213.467 8.81546 179.63 28.3158C168.839 34.559 156.353 41.6501 151.883 44.1165C141.631 49.7431 105.868 70.4767 97.1582 75.7179C86.8299 81.9611 59.6219 97.3764 43.5899 106.086C35.574 110.479 26.3248 115.489 23.1647 117.262C15.2258 121.656 7.51811 129.055 4.74336 134.99C-0.112466 145.164 0.0416871 140.154 0.0416871 265.48C0.0416871 389.111 -0.0353894 384.795 4.2809 394.044C6.5932 398.9 13.2989 406.453 18.2318 409.922C20.0816 411.155 27.3268 415.24 34.4949 418.94C41.586 422.717 51.9913 428.343 57.4637 431.58C63.0132 434.741 70.798 439.134 74.806 441.446C78.8139 443.681 87.1382 448.537 93.3043 452.16C128.22 472.585 149.262 484.686 159.205 490.004C163.444 492.317 174.928 498.714 184.64 504.264C221.02 525.074 230.269 529.313 238.748 529.313C242.756 529.313 244.606 528.928 246.687 527.695C249.23 526.153 249.307 526.153 247.997 527.541C246.687 529.082 246.687 529.082 252.005 529.236C255.088 529.313 258.711 528.851 260.638 528.234C263.181 527.309 264.106 527.309 264.568 528.003C264.954 528.543 265.185 528.234 265.185 527.001C265.185 525.614 265.416 525.383 265.879 526.153C266.264 526.693 266.881 527.001 267.343 526.693C267.806 526.462 268.345 526.693 268.499 527.155C268.808 527.926 269.116 527.926 269.578 527.309C269.887 526.77 271.043 526.462 272.045 526.539C273.278 526.616 273.972 526.153 274.126 525.228C274.434 523.147 275.205 522.608 275.976 523.918C276.438 524.689 276.747 524.766 276.747 524.149C276.747 523.61 277.286 523.379 277.903 523.61C278.596 523.918 279.29 523.533 279.598 522.762C280.061 521.452 280.138 521.452 280.986 522.685C281.911 523.841 281.988 523.764 282.373 522.145C282.836 520.45 285.996 519.294 285.996 520.912C285.996 521.298 286.304 521.606 286.767 521.606C287.152 521.606 287.229 520.989 286.998 520.218C286.535 519.062 286.612 519.062 287.768 519.987C288.925 520.912 289.079 520.912 288.616 519.679C288.231 518.677 288.308 518.446 288.925 518.831C289.464 519.139 289.85 518.985 289.85 518.369C289.85 517.598 290.081 517.675 290.62 518.523C291.237 519.448 291.391 519.448 291.854 518.292C292.085 517.598 293.01 516.981 293.78 516.981C294.551 516.981 295.245 516.673 295.245 516.288C295.245 515.902 296.324 515.44 297.634 515.131C298.945 514.9 299.792 514.361 299.561 513.975C299.33 513.667 299.792 512.742 300.563 512.048C301.719 510.969 302.105 510.969 302.49 511.74C302.876 512.511 303.03 512.511 303.415 511.74C303.646 511.278 304.186 510.969 304.571 511.2C304.957 511.509 305.034 511.123 304.802 510.507C304.571 509.813 304.725 509.274 305.188 509.274C305.65 509.274 306.036 509.582 306.036 510.044C306.036 510.43 306.421 510.815 306.806 510.815C307.269 510.815 307.577 509.967 307.577 508.888C307.577 507.501 307.963 506.961 309.042 506.961C309.889 506.961 310.66 506.653 310.814 506.268C310.969 505.651 313.05 505.034 316.287 504.726C316.595 504.649 316.826 504.109 316.826 503.493C316.826 502.876 317.058 502.414 317.443 502.414C319.832 502.799 321.605 502.105 322.376 500.41C322.838 499.331 323.609 498.483 324.072 498.56C326.538 498.868 327.617 498.329 327.617 496.941C327.617 495.631 328.157 495.4 331.471 495.4C334.4 495.4 335.325 495.091 335.325 494.244C335.325 493.55 336.018 493.087 337.252 493.087C338.485 493.087 339.179 492.625 339.179 491.931C339.179 491.315 339.564 490.775 339.949 490.775C340.412 490.775 340.72 491.161 340.72 491.546C340.72 492.008 341.183 491.931 341.799 491.392C342.57 490.621 342.647 490.236 341.953 489.773C341.414 489.311 341.645 489.234 342.493 489.542C343.495 489.85 344.497 489.234 345.884 487.692C346.886 486.382 348.428 485.38 349.276 485.38C350.046 485.38 350.74 484.994 350.74 484.609C350.74 484.147 351.28 483.838 351.896 483.838C352.513 483.838 353.052 483.376 353.052 482.836C353.052 482.143 353.977 481.757 355.365 481.68C356.983 481.68 357.523 481.911 357.214 482.528C356.906 483.068 357.523 482.605 358.679 481.603C359.758 480.601 360.452 479.368 360.22 478.751C359.912 477.98 360.22 477.826 361.222 478.212C362.147 478.52 362.379 478.443 361.993 477.826C361.685 477.287 361.839 476.901 362.224 476.901C362.687 476.901 363.072 477.441 363.072 478.058C363.072 478.982 363.458 478.905 365.385 477.826C366.618 477.133 367.697 475.899 367.697 475.129C367.697 474.05 368.236 473.895 370.318 474.127C372.553 474.435 372.938 474.204 372.553 473.279C372.167 472.277 372.399 472.123 373.709 472.431C374.942 472.816 375.405 472.585 375.405 471.66C375.405 470.504 375.559 470.504 376.175 471.506C376.561 472.123 376.946 472.277 376.946 471.737C376.946 471.275 377.563 470.967 378.333 471.044C379.027 471.198 380.415 470.273 381.417 468.885C382.419 467.575 383.498 466.419 383.883 466.419C384.345 466.342 385.039 466.265 385.502 466.188C385.964 466.188 386.195 465.571 385.964 464.955C385.579 464.03 385.887 464.03 387.583 464.646C389.355 465.34 389.895 465.186 391.359 463.49C392.284 462.411 393.595 461.486 394.211 461.486C394.828 461.486 395.599 461.101 395.83 460.715C396.138 460.253 396.678 460.099 397.063 460.33C397.448 460.638 397.757 460.484 397.757 460.022C397.757 459.559 398.219 459.405 398.759 459.636C399.375 459.867 399.838 459.482 399.838 458.866C399.838 458.249 399.375 457.941 398.682 458.249C397.911 458.48 397.68 458.326 398.065 457.786C398.373 457.247 399.53 457.093 400.994 457.401C403.229 457.864 403.383 457.709 402.921 456.168C402.69 455.166 402.69 454.626 402.921 454.858C403.229 455.089 403.769 454.935 404.308 454.549C404.925 454.01 405.233 454.164 405.233 454.935C405.233 455.551 404.925 455.86 404.54 455.628C404.231 455.397 403.923 455.551 403.923 456.014C403.923 457.864 405.387 457.478 406.389 455.32C407.545 452.545 408.316 452.391 408.779 454.703L409.087 456.476L409.241 454.78C409.318 453.547 409.704 453.162 410.474 453.47C411.168 453.778 411.631 453.47 411.631 452.776C411.631 452.006 412.17 451.774 413.48 452.006C414.482 452.237 415.561 452.006 415.793 451.543C416.178 451.004 415.87 450.85 415.176 451.158C414.482 451.389 413.943 451.235 413.943 450.772C413.943 449.925 415.099 449.616 416.641 449.925C417.026 450.002 417.797 449.462 418.336 448.691C418.876 447.921 419.878 447.535 420.803 447.844C421.651 448.075 422.73 447.766 423.269 447.15C423.732 446.533 424.425 446.225 424.734 446.456C425.042 446.687 425.581 445.994 425.813 444.915C426.121 443.836 426.66 442.988 427.046 442.988C428.125 442.988 427.971 444.375 426.892 444.76C426.352 444.915 426.121 445.3 426.352 445.608C426.583 445.84 428.048 444.915 429.589 443.45C431.131 441.986 432.595 441.061 432.827 441.446C433.058 441.755 432.672 442.294 431.979 442.525C431.362 442.756 431.054 443.373 431.285 443.758C431.593 444.221 432.441 443.758 433.366 442.602C434.214 441.523 435.139 440.753 435.37 440.984C435.601 441.292 436.449 440.83 437.22 440.136C438.453 439.057 438.839 438.98 439.301 439.828C439.841 440.675 440.303 440.675 441.382 439.905C442.615 439.134 442.615 439.057 441.536 439.442C440.765 439.673 440.149 439.519 440.149 439.134C440.149 438.671 440.534 438.363 440.997 438.363C441.459 438.363 441.69 437.824 441.382 437.207C441.151 436.59 441.305 436.051 441.69 436.051C442.153 436.051 442.461 436.359 442.461 436.822C442.461 437.207 443.001 437.361 443.617 437.13C444.465 436.822 444.619 436.976 444.311 437.824C444.08 438.44 444.234 439.134 444.619 439.442C445.005 439.673 445.236 439.057 445.159 438.132C444.928 435.357 445.544 435.126 447.24 437.207C448.088 438.286 448.55 439.442 448.319 439.751C448.011 439.982 447.471 439.751 447.086 439.134C446.623 438.44 446.315 438.363 446.315 438.903C446.315 439.365 446.855 440.29 447.471 440.984C448.088 441.6 448.627 443.142 448.627 444.375C448.627 446.456 450.477 448.306 451.556 447.304C451.71 447.073 451.942 444.067 452.019 440.521C452.096 434.586 452.25 433.97 454.177 432.351C455.333 431.426 456.335 429.808 456.489 428.883C456.643 427.727 457.183 427.264 458.262 427.418C459.572 427.572 459.495 427.418 457.876 426.416C456.797 425.723 456.489 425.337 457.183 425.568C458.031 425.8 458.416 425.491 458.339 424.721C458.339 424.027 458.724 423.333 459.341 423.102C459.958 422.871 460.189 423.102 459.88 423.564C459.264 424.644 460.112 428.343 461.037 428.343C461.422 428.343 461.268 427.418 460.805 426.339C459.958 424.644 460.035 424.181 461.345 423.256C462.732 422.177 462.732 422.177 461.268 422.177C460.42 422.177 460.112 421.946 460.651 421.56C461.114 421.252 461.807 420.25 462.039 419.248C462.501 417.861 462.886 417.63 463.657 418.323C464.505 419.094 464.659 418.94 464.428 417.63C464.197 416.242 464.351 416.088 465.661 416.782C466.432 417.244 467.126 417.938 467.126 418.4C467.126 418.863 466.817 418.94 466.355 418.709C465.892 418.477 465.815 418.786 466.047 419.479C466.663 421.021 467.28 420.404 467.511 418.015C467.665 416.936 467.434 416.165 466.972 416.242C466.509 416.319 466.047 416.011 465.815 415.471C465.584 414.932 466.047 414.778 467.126 415.009C468.282 415.317 468.59 415.163 468.205 414.238C467.974 413.622 468.128 412.851 468.59 412.542C469.053 412.311 469.438 411.386 469.438 410.538C469.438 409.768 469.823 409.074 470.209 409.074C471.365 409.074 471.134 406.762 470.055 406.685C469.515 406.685 468.359 406.531 467.588 406.376C466.74 406.222 465.661 406.685 465.045 407.378C464.274 408.38 464.12 408.457 464.043 407.61C464.043 406.993 464.89 405.606 465.892 404.527C471.057 399.054 476.683 384.332 476.606 376.702C476.529 375.237 476.683 374.621 476.914 375.392C477.685 378.243 478.687 376.471 478.687 372.309C478.687 367.915 477.608 367.299 476.991 371.307C476.837 372.386 476.683 369.765 476.683 365.526C476.683 361.287 476.837 359.668 476.991 361.826C477.223 365.526 477.531 366.065 479.15 365.834C479.458 365.834 479.997 366.219 480.306 366.836C480.768 367.53 480.999 367.53 480.999 366.913C480.999 366.451 480.383 365.526 479.612 364.986C478.379 364.061 478.302 363.059 478.687 355.275C478.918 349.879 478.764 346.488 478.302 346.257C477.839 346.025 477.839 345.717 478.379 345.486C478.918 345.255 479.073 344.33 478.918 343.405C478.687 342.557 478.764 341.632 479.15 341.324C479.612 341.093 479.689 337.162 479.381 331.997C479.073 326.14 479.15 322.748 479.689 322.055C480.306 321.284 480.229 320.821 479.304 320.128C478.302 319.357 478.148 318.278 478.456 313.962C478.841 309.337 478.764 308.489 477.454 307.564C476.221 306.716 475.912 305.252 475.681 299.471C475.527 294.461 475.681 292.303 476.375 291.918C476.991 291.532 477.531 288.912 477.762 285.289C477.916 281.898 478.456 278.506 478.918 277.659C479.612 276.271 479.535 276.271 478.456 277.119C477.3 278.044 477.223 277.736 477.608 273.651C478.148 267.407 478.148 267.484 477.069 261.472C476.298 257.464 475.989 242.589 475.912 202.894C475.758 145.087 475.681 144.393 471.288 134.759C468.821 129.286 460.497 121.27 453.56 117.648C440.149 110.634 404.154 90.2854 372.09 71.7099C341.26 53.7511 335.787 50.591 322.993 43.3458C315.593 39.1836 302.721 31.9384 294.474 27.1597C248.614 0.722406 247.766 0.259977 239.75 0.0287476C236.513 -0.125406 232.659 0.259974 230.886 0.876587ZM243.372 25.0015C244.991 25.7723 252.544 29.7032 260.175 33.7883C267.806 37.8733 295.553 51.9783 321.836 65.2355C348.119 78.4156 370.318 89.7458 371.088 90.3625C372.167 91.2103 372.321 91.7498 371.705 92.4435C371.242 92.983 364.691 96.5286 357.137 100.305L343.341 107.165L343.418 127.051V147.014H346.424H349.43L348.967 157.959C348.659 164.048 348.428 174.607 348.428 181.544V194.108L344.42 193.491C342.185 193.183 337.483 192.951 334.014 193.028L327.694 193.105L328.08 173.374C328.542 147.784 328.619 147.168 331.317 146.86C333.321 146.628 333.398 146.551 333.321 141.618C333.244 138.844 332.935 131.676 332.627 125.586C332.01 112.946 332.396 113.408 324.611 116.877C321.297 118.418 319.37 119.729 318.907 120.962C318.522 121.887 318.368 132.138 318.522 143.545L318.753 164.356L315.054 169.52C308.656 178.538 298.79 184.704 282.065 190.254C267.035 195.187 259.79 196.42 242.833 196.882C229.961 197.191 226.416 197.036 218.168 195.649C193.889 191.718 173.772 182.469 162.673 170.368C156.045 163.123 156.122 163.431 156.122 139.923C156.122 116.491 156.815 118.804 148.877 115.489C145.331 113.948 132.69 107.319 109.722 94.8329C107.024 93.3684 104.866 91.904 104.866 91.5186C104.866 91.1332 106.87 89.8229 109.336 88.5897C111.726 87.3565 117.738 84.1192 122.593 81.4216C127.449 78.7239 136.159 74.2535 141.863 71.4787C153.887 65.698 188.186 48.4328 216.781 33.8653C227.726 28.2387 237.515 23.6912 238.594 23.6912C239.596 23.6912 241.754 24.3078 243.372 25.0015ZM105.174 105.855L108.72 107.859L104.635 111.019C91.6086 121.193 74.7289 141.618 63.4757 160.888C48.5228 186.4 40.8923 208.444 36.8843 237.964C35.3428 249.14 35.574 283.825 37.2697 295.001C42.2796 328.837 53.1474 357.202 70.3355 381.943C83.3615 400.596 106.33 423.564 123.595 435.203C142.479 447.844 171.383 462.334 189.65 468.269C203.601 472.816 223.564 476.131 237.129 476.131H242.833V479.522C242.833 482.451 243.064 482.99 244.606 483.299C246.687 483.684 234.432 484.147 226.647 483.915C214.7 483.607 192.116 478.443 175.391 472.2C158.049 465.725 133.23 452.699 119.356 442.757C104.095 431.812 82.2053 411.078 71.4917 397.358C53.0704 373.773 40.7381 349.031 34.6491 323.519C28.6371 298.546 27.0185 285.752 27.0185 264.17C27.0185 245.286 28.3288 232.954 32.1055 216.074C39.3507 184.088 52.3767 157.342 73.881 130.596C80.3555 122.503 84.4405 118.418 97.1582 107.011C99.0851 105.315 100.858 103.851 101.089 103.851C101.397 103.851 103.17 104.776 105.174 105.855ZM126.833 118.958L128.76 120.191L126.293 123.274C124.983 124.97 120.589 129.903 116.581 134.142C96.3103 156.032 82.1282 178.307 72.879 202.817C70.4126 209.369 65.9422 227.019 64.4006 236.423C62.3966 248.215 62.0112 272.417 63.5528 286.137C64.9402 298.161 68.1774 314.116 71.4917 324.675C75.7309 338.318 87.986 360.824 98.6997 374.852C103.478 381.095 104.095 383.176 101.86 385.412L100.241 387.03L97.8518 384.795C90.6837 378.012 77.8119 358.435 70.875 343.944C64.8631 331.227 62.0112 322.825 59.3906 309.645C54.3036 284.133 53.4557 258.389 57.0783 233.956C61.3176 204.975 73.6498 176.611 93.2272 150.328C104.095 135.838 121.36 117.725 124.366 117.725C124.674 117.725 125.831 118.264 126.833 118.958ZM362.07 124.045C376.869 138.15 397.757 168.749 406.081 188.635C412.401 203.665 419.647 229.871 421.651 244.901C422.73 252.686 422.73 277.581 421.728 285.829C419.492 303.017 412.401 328.606 405.387 344.561C402.073 352.114 393.132 367.607 389.047 373.002C387.66 374.852 385.193 378.166 383.729 380.402L380.954 384.487L379.49 382.328C376.715 378.398 376.715 376.471 379.335 373.156C403.615 342.865 419.415 287.678 414.714 249.526C411.708 225.324 402.613 196.266 391.822 176.38C383.343 160.733 368.159 139.923 357.831 129.749C352.436 124.507 352.359 124.353 353.438 122.272C354.363 120.499 355.365 119.652 356.752 119.343C356.906 119.266 359.296 121.424 362.07 124.045ZM402.767 130.442C416.178 147.553 429.281 170.985 436.218 190.022C439.455 199.117 445.544 222.78 447.009 232.183C449.167 246.134 449.629 254.304 449.167 269.951C448.55 289.066 447.934 294.769 444.311 312.728C438.762 340.013 429.204 362.134 412.093 387.647C408.008 393.659 404.54 397.513 403.692 396.973C403.229 396.742 403.152 396.896 403.46 397.358C404 398.283 398.759 405.22 397.526 405.22C397.217 405.22 397.834 404.295 398.913 403.139C399.992 401.906 400.686 400.519 400.454 399.979C400.3 399.517 400.609 399.054 401.225 399.054C402.69 399.054 402.767 397.05 401.302 396.511C399.067 395.663 399.607 392.58 402.767 387.955C420.649 361.98 429.821 340.013 436.603 307.333C438.993 296.157 439.918 288.989 440.92 274.961C442.692 250.065 436.218 213.068 425.273 185.937C418.799 169.751 405.773 147.091 395.213 133.602C391.745 129.209 391.668 129.055 392.824 126.897C393.44 125.664 394.057 124.662 394.211 124.662C394.828 124.662 393.672 128.13 392.978 128.592C392.516 128.824 392.747 129.286 393.363 129.517C394.982 130.134 395.907 124.662 394.597 122.195C393.672 120.422 393.672 120.422 395.83 122.349C396.986 123.428 400.069 127.051 402.767 130.442ZM131.072 154.876L133.384 157.419L135.157 155.261C136.93 153.103 140.321 152.409 140.321 154.182C140.321 154.798 139.473 156.032 138.394 157.034C135.851 159.423 135.928 160.888 138.779 163.585C140.09 164.818 141.092 166.052 141.092 166.437C141.092 167.747 137.469 166.977 135.619 165.204L133.538 163.277L130.995 165.204C128.528 166.977 124.906 167.747 124.906 166.36C124.906 165.975 126.293 164.433 127.989 162.892C129.684 161.35 131.072 159.963 131.072 159.808C131.072 159.577 129.916 158.113 128.451 156.571C126.987 154.953 125.908 153.334 126.139 153.026C126.91 151.792 128.837 152.486 131.072 154.876ZM119.819 155.646C120.05 157.034 120.358 159.808 120.512 161.812C120.821 165.358 120.821 165.512 118.817 165.512C115.04 165.512 114.655 164.664 115.271 158.652C115.811 153.565 115.965 153.18 117.661 153.18C119.048 153.18 119.51 153.642 119.819 155.646ZM146.333 186.554C148.722 188.404 146.564 194.03 143.481 194.03C141.323 194.03 140.321 192.412 140.321 188.943C140.321 186.477 140.629 185.629 141.708 185.398C143.173 185.012 144.869 185.475 146.333 186.554ZM102.785 188.635C104.172 189.868 106.716 191.564 108.565 192.258C111.803 193.568 111.88 193.722 111.494 196.343C111.263 197.807 111.032 200.351 111.032 201.969C111.032 204.282 110.724 205.052 109.49 205.361C108.643 205.592 107.949 206.054 107.949 206.517C107.949 206.902 108.565 206.825 109.413 206.363C110.415 205.823 111.109 205.823 111.417 206.363C111.649 206.748 111.417 207.133 110.878 207.133C110.261 207.133 107.255 208.675 104.095 210.679C99.3163 213.608 98.3143 213.993 97.7748 212.991C97.3894 212.298 96.7728 211.758 96.3874 211.758C96.002 211.758 94.0751 210.756 92.0711 209.446L88.4485 207.211L88.1402 200.351L87.8319 193.568L91.994 191.872C94.3063 190.87 97.004 189.252 97.9289 188.25C98.9309 187.171 99.8558 186.323 100.01 186.323C100.164 186.323 101.397 187.325 102.785 188.635ZM174.235 203.665C174.235 205.284 173.849 205.592 171.922 205.592C169.996 205.592 169.61 205.284 169.61 203.665C169.61 202.046 169.996 201.738 171.922 201.738C173.849 201.738 174.235 202.046 174.235 203.665ZM197.204 211.45C197.358 213.377 196.972 214.302 195.354 215.535C192.733 217.616 190.806 217.616 189.342 215.458C187.723 213.145 187.8 212.066 189.727 210.139C190.806 209.06 192.039 208.675 194.12 208.829C196.664 209.06 196.972 209.292 197.204 211.45ZM292.778 210.756C294.089 212.529 293.935 214.841 292.393 216.537C290.774 218.31 289.31 218.31 286.15 216.383C283.992 215.072 283.606 214.456 283.838 212.375C283.992 210.525 284.531 209.754 285.996 209.369C288.616 208.598 291.545 209.215 292.778 210.756ZM337.02 211.064C337.252 212.914 337.945 213.377 343.187 215.227C345.191 215.92 348.736 217.77 351.125 219.312C355.981 222.472 357.446 225.401 359.604 236.268L360.914 242.512L357.754 247.907C353.592 254.998 348.582 258.929 338.87 262.629C336.943 263.322 336.866 263.322 336.866 259.931C336.866 256.617 336.943 256.462 340.566 254.921C344.574 253.148 349.199 249.063 351.665 245.055C353.052 242.82 353.207 241.664 352.821 237.193C352.127 228.638 351.203 227.173 343.572 223.32L337.02 220.005L332.01 222.163C322.761 226.094 319.139 230.488 319.139 237.964C319.139 246.905 322.761 252.223 330.315 254.613C332.627 255.383 334.708 256.54 334.862 257.156C335.633 259.854 336.173 264.941 335.787 264.941C335.479 264.941 331.856 263.245 327.694 261.087C316.441 255.46 312.202 249.68 312.202 239.968C312.202 230.642 313.358 227.405 318.676 222.086C322.299 218.387 324.457 216.922 328.234 215.612C331.856 214.302 333.398 213.3 334.246 211.604C335.556 209.06 336.635 208.829 337.02 211.064ZM147.335 213.762C152.037 217.693 163.984 225.94 167.837 227.867C169.61 228.715 172.231 229.486 173.618 229.486H176.239L175.622 235.421C175.391 238.735 175.083 244.439 175.083 248.138C175.005 251.915 174.774 254.921 174.389 254.921C173.079 254.921 171.845 259.468 172.539 261.935C173.156 264.478 173.156 264.478 166.99 268.332C157.124 274.344 146.256 281.127 144.714 282.129C143.789 282.746 143.173 282.823 142.787 282.283C142.479 281.821 138.086 278.969 132.999 275.886C127.912 272.88 122.748 269.72 121.437 268.795C120.204 267.947 117.583 266.714 115.657 266.097L112.188 264.941V247.213V229.486H114.5C117.275 229.486 119.125 228.561 131.303 221.007C136.313 217.924 141.169 214.379 142.094 213.223C142.942 211.989 143.789 210.987 143.867 210.987C143.944 210.987 145.562 212.22 147.335 213.762ZM242.987 216.999C258.479 240.662 264.8 249.911 272.045 259.468L274.049 262.089L264.414 261.627C259.096 261.395 253.855 260.856 252.699 260.393C251.543 259.931 250.463 259.854 250.232 260.162C250.001 260.547 249.693 291.995 249.384 330.071C249.153 368.146 248.768 399.517 248.614 399.748C248.382 399.902 248.228 397.204 248.228 393.736V387.416L246.301 389.342C245.222 390.422 244.374 391.655 244.374 392.117C244.374 392.503 244.066 392.888 243.604 392.888C243.218 392.888 242.833 393.736 242.833 394.815C242.833 396.433 242.447 396.742 240.521 396.742C238.594 396.742 238.208 397.05 238.208 398.669C238.208 400.364 237.9 400.596 235.511 400.596C233.661 400.596 232.813 400.981 232.813 401.752C232.813 402.754 231.657 403.37 231.117 402.677C231.04 402.6 230.732 370.69 230.501 331.843C230.269 292.997 229.961 261.087 229.73 260.856C229.499 260.625 227.032 260.856 224.18 261.241C221.328 261.627 216.01 261.781 212.388 261.704L205.759 261.472L214.469 248.369C219.325 241.124 224.489 233.494 225.953 231.413C227.495 229.254 231.04 224.167 233.892 220.005C236.744 215.92 239.287 212.529 239.596 212.529C239.904 212.529 241.445 214.533 242.987 216.999ZM385.733 215.304C389.047 218.541 385.579 224.244 381.339 222.626C378.488 221.547 377.64 219.543 378.95 217.076C380.569 213.916 383.575 213.145 385.733 215.304ZM341.028 234.187C343.341 236.962 343.418 237.193 341.953 240.662C339.718 245.903 334.323 246.674 330.777 242.126C328.696 239.506 328.696 236.423 330.777 233.802C332.01 232.183 333.012 231.798 335.71 231.798C338.485 231.798 339.41 232.183 341.028 234.187ZM87.6007 244.439C88.2173 247.059 87.7548 248.832 86.2133 249.834C83.2844 251.607 80.2013 246.52 82.5907 243.668C84.0551 241.895 87.0611 242.28 87.6007 244.439ZM398.296 257.156C400.454 258.775 402.613 261.241 403.152 262.551C405.233 267.639 402.304 274.344 396.678 277.273C393.595 278.969 393.132 278.969 390.743 278.044C385.116 275.732 380.8 270.259 380.8 265.635C380.8 263.631 381.648 262.243 385.27 258.621C390.897 253.071 392.824 252.84 398.296 257.156ZM476.144 260.856C475.912 261.627 475.758 261.164 475.758 259.931C475.758 258.621 475.912 258.081 476.144 258.544C476.298 259.083 476.298 260.162 476.144 260.856ZM176.547 263.553C176.547 263.939 176.085 264.17 175.468 264.17C174.774 264.17 174.543 263.631 174.774 262.551C175.083 261.318 175.391 261.241 175.853 262.012C176.239 262.551 176.547 263.245 176.547 263.553ZM85.1342 263.862C87.3694 266.02 86.1362 271.107 83.4385 271.107C81.3575 271.107 80.2013 269.565 80.2013 266.868C80.2013 263.014 82.7448 261.395 85.1342 263.862ZM305.959 274.653C308.04 277.35 308.04 279.971 305.881 281.435C302.028 284.133 296.016 281.589 296.016 277.273C296.016 272.649 302.953 270.876 305.959 274.653ZM476.144 278.198C475.989 279.2 475.835 278.429 475.835 276.502C475.835 274.575 475.989 273.805 476.144 274.73C476.298 275.732 476.298 277.273 476.144 278.198ZM367.62 280.048C370.009 283.054 369.701 285.983 366.849 288.372C363.766 290.993 361.916 290.916 359.064 288.064C357.137 286.06 356.829 285.289 357.214 283.208C358.216 278.044 364.537 276.117 367.62 280.048ZM213.544 280.742C215.856 281.975 217.398 284.056 217.398 286.06C217.398 288.218 213.544 291.918 211.231 291.918C208.996 291.918 205.065 288.218 205.065 286.137C205.065 284.133 206.761 281.281 208.457 280.51C210.692 279.431 211 279.431 213.544 280.742ZM336.635 281.281C338.87 283.362 338.947 286.445 336.789 289.143C334.862 291.609 331.856 291.764 329.39 289.451C327.078 287.293 327.078 283.748 329.313 281.358C331.394 279.123 334.323 279.123 336.635 281.281ZM476.144 285.135C475.989 286.137 475.835 285.52 475.835 283.825C475.758 282.129 475.912 281.358 476.144 282.052C476.298 282.823 476.298 284.21 476.144 285.135ZM280.138 283.593C280.138 284.364 280.061 321.823 279.984 366.913L279.83 448.846L270.889 451.697C266.033 453.316 261.64 454.395 261.254 454.164C260.869 453.856 260.56 420.096 260.56 368.223V282.746L268.885 282.437C280.292 282.129 280.215 282.052 280.138 283.593ZM88.2943 295.771C88.911 298.623 88.2943 299.625 85.9821 299.625C84.5947 299.625 83.9781 299.086 83.5927 297.698C82.899 294.924 83.7468 293.459 85.905 293.459C87.3694 293.459 87.909 293.999 88.2943 295.771ZM304.957 301.013C307.963 302.94 307.731 307.95 304.571 309.568C302.182 310.878 298.482 310.57 296.786 308.875C294.782 306.871 294.86 304.944 296.864 302.4C298.02 300.859 299.099 300.396 301.257 300.396C302.798 300.396 304.494 300.704 304.957 301.013ZM151.96 304.635C156.738 307.102 158.819 314.501 156.122 319.665C154.734 322.363 150.495 325.061 147.643 325.061C142.865 325.061 138.009 319.511 138.009 314.039C138.009 311.341 140.09 308.027 143.789 304.867C145.716 303.171 148.954 303.094 151.96 304.635ZM341.26 317.507C340.951 325.292 340.72 351.19 340.643 375.16V418.709L332.781 423.796C328.465 426.647 324.149 429.345 323.224 429.808L321.451 430.733V367.067V303.479H331.625H341.722L341.26 317.507ZM372.09 342.711C372.013 363.907 371.628 381.481 371.32 381.789C371.011 382.174 369.778 382.56 368.622 382.714C366.078 383.022 366.001 383.099 365.847 385.489C365.77 387.724 364.691 388.263 364.537 386.105C364.46 384.641 362.533 389.959 361.454 394.815C359.912 401.366 360.066 402.523 362.147 400.441C362.687 399.902 363.072 399.825 363.072 400.21C363.072 401.058 353.592 410.616 352.821 410.616C352.513 410.616 352.282 386.645 352.282 357.433V304.25H362.302H372.244L372.09 342.711ZM220.095 306.1C220.095 306.1 219.941 326.602 219.71 351.652C219.479 376.625 219.17 396.356 219.093 395.354C218.939 393.967 218.477 393.659 216.164 393.659C213.852 393.659 213.467 393.89 213.929 395.123C214.315 396.433 213.929 396.742 211.463 397.204C209.767 397.513 207.686 398.669 206.53 399.979C205.374 401.135 204.063 402.137 203.601 402.137C203.061 402.137 202.753 404.912 202.753 410.384C202.753 414.855 202.599 418.4 202.445 418.246C201.828 417.63 201.057 326.217 201.597 315.966L202.136 305.406L211.077 305.714C216.087 305.791 220.095 306.023 220.095 306.1ZM186.336 309.029C188.571 311.11 188.571 313.576 186.413 315.58C183.792 317.892 181.48 318.201 179.322 316.505C176.47 314.27 176.316 312.112 178.859 309.568C181.48 306.871 183.869 306.716 186.336 309.029ZM95.4625 311.341C96.002 311.88 96.3874 313.576 96.3874 315.195C96.3874 317.661 96.0791 318.201 94.4605 318.586C93.3814 318.817 91.6857 318.817 90.6066 318.586C88.988 318.201 88.6797 317.661 88.6797 314.964C88.6797 312.497 88.988 311.803 90.4525 311.187C92.8419 310.262 94.3834 310.262 95.4625 311.341ZM112.419 314.039C112.188 317.276 111.957 317.815 110.03 318.432C107.101 319.511 105.328 318.278 105.02 315.118C104.635 311.11 105.174 310.416 109.105 310.416H112.651L112.419 314.039ZM128.605 314.039C128.374 317.738 128.374 317.738 125.368 317.97C121.977 318.278 121.052 317.43 121.052 313.73C121.052 311.033 121.746 310.57 125.908 310.493L128.837 310.416L128.605 314.039ZM308.271 322.44L310.66 322.902V343.096C310.66 354.118 310.429 377.473 310.121 394.969C309.735 420.944 309.427 426.57 308.579 426.262C308.04 426.031 307.577 426.262 307.577 426.725C307.577 427.187 307.963 427.572 308.348 427.572C308.81 427.572 309.119 428.266 309.119 429.114C309.119 429.962 308.579 430.655 307.963 430.655C307.346 430.655 306.806 431.195 306.806 431.889C306.806 432.505 307.192 432.814 307.577 432.582C308.733 431.889 308.502 432.891 307.269 434.201C306.421 435.049 306.036 435.049 305.804 434.278C305.573 433.816 305.342 434.124 305.342 435.049C305.265 435.974 305.727 436.822 306.267 437.053C307.192 437.438 293.164 444.529 291.545 444.529C290.929 444.529 290.62 427.649 290.62 383.253V321.978H298.251C302.413 321.978 306.961 322.209 308.271 322.44ZM191.346 335.466C191.269 336.699 190.883 357.356 190.575 381.326C190.19 405.297 189.804 421.946 189.65 418.323C189.573 414.701 189.265 412.542 189.11 413.467C188.725 415.471 187.338 415.857 187.338 414.084C187.338 413.236 186.49 412.928 184.255 412.928C182.019 412.928 181.172 413.236 181.172 414.084C181.172 414.932 180.247 415.24 177.318 415.24C175.237 415.24 173.464 415.548 173.464 416.011C173.464 416.396 173.849 416.782 174.235 416.782C175.545 416.782 175.083 418.94 173.618 420.019C172.308 420.944 172.231 421.869 172.539 429.653L172.924 438.286L175.16 439.211C178.243 440.444 177.472 440.83 174.003 439.751L171.152 438.903L171.229 385.797L171.306 332.691L181.48 332.922L191.577 333.154L191.346 335.466ZM123.287 337.085C125.445 339.782 125.291 342.403 122.979 344.715C120.667 347.104 118.2 347.182 115.888 344.946C113.575 342.788 113.575 339.243 115.811 336.853C118.046 334.464 121.283 334.541 123.287 337.085ZM152.885 336.005C156.97 338.164 157.74 342.48 154.503 345.023C151.728 347.182 150.803 347.104 148.491 344.253C146.025 341.324 145.948 339.397 148.414 337.007C150.572 334.772 150.649 334.772 152.885 336.005ZM478.456 337.547C478.225 338.087 478.071 337.701 478.071 336.622C478.071 335.543 478.225 335.158 478.456 335.62C478.61 336.16 478.61 337.085 478.456 337.547ZM476.914 343.713C476.76 344.715 476.606 344.099 476.606 342.403C476.529 340.707 476.683 339.936 476.914 340.63C477.069 341.401 477.069 342.788 476.914 343.713ZM160.746 391.578C160.361 425.568 160.053 432.197 159.128 432.197C158.357 432.197 143.096 423.564 141.708 422.331C140.398 421.252 140.321 418.709 140.321 388.649C140.321 370.767 140.475 355.968 140.629 355.814C140.783 355.66 145.485 355.583 151.035 355.737L161.132 355.968L160.746 391.578ZM129.53 384.718C129.53 404.989 129.068 412.388 127.912 412.003C127.603 411.849 123.672 408.843 119.202 405.22L111.109 398.669V381.481L111.032 364.37H120.281H129.53V384.718ZM398.373 396.279C397.757 396.742 397.063 397.744 396.755 398.437C396.292 399.748 394.674 400.441 394.674 399.362C394.674 398.36 398.913 393.967 399.221 394.738C399.375 395.123 398.99 395.817 398.373 396.279ZM462.655 409.228C462.116 409.768 461.73 409.845 461.73 409.382C461.73 408.303 462.655 407.378 463.195 407.918C463.349 408.149 463.118 408.766 462.655 409.228ZM467.126 408.303C467.126 408.689 466.817 409.074 466.355 409.074C465.97 409.074 465.584 408.689 465.584 408.303C465.584 407.841 465.97 407.533 466.355 407.533C466.817 407.533 467.126 407.841 467.126 408.303ZM446.623 418.709C446.315 419.325 445.775 419.634 445.39 419.402C444.928 419.094 445.005 418.632 445.621 418.246C447.086 417.321 447.086 417.398 446.623 418.709ZM449.938 419.248C449.706 419.865 449.475 419.634 449.475 418.786C449.398 417.938 449.629 417.475 449.861 417.784C450.092 418.015 450.169 418.709 449.938 419.248ZM450.708 426.57C450.477 427.341 450.323 426.879 450.323 425.646C450.323 424.335 450.477 423.796 450.708 424.258C450.863 424.798 450.863 425.877 450.708 426.57ZM424.348 444.529C424.117 444.915 423.423 445.3 422.961 445.3C422.421 445.3 422.498 444.992 423.192 444.529C424.656 443.604 424.965 443.604 424.348 444.529ZM423.192 446.379C423.192 446.61 422.884 446.996 422.421 447.227C422.036 447.458 421.651 447.304 421.651 446.919C421.651 446.456 422.036 446.071 422.421 446.071C422.884 446.071 423.192 446.225 423.192 446.379ZM366.772 475.514C366.618 475.976 365.847 476.439 365.153 476.593C364.46 476.67 363.997 476.439 364.306 476.054C364.537 475.668 365.076 475.514 365.462 475.745C365.847 476.054 366.155 475.822 366.155 475.437C366.155 474.974 366.387 474.589 366.618 474.589C366.849 474.589 366.926 474.975 366.772 475.514ZM358.756 479.368C358.525 481.757 358.525 481.68 357.677 481.141C357.137 480.832 357.137 480.139 357.677 479.137C358.756 477.21 358.987 477.287 358.756 479.368ZM321.22 500.41C320.526 501.026 319.524 501.566 318.985 501.566C318.445 501.566 318.83 500.872 319.909 500.024C322.068 498.406 322.992 498.56 321.22 500.41Z" fill="#212153"/>
</svg>
